<svg width="1074" height="128" viewBox="0 0 1074 128" fill="none" xmlns="http://www.w3.org/2000/svg">
<rect x="14" y="59" width="285" height="10" fill="#2D6CB1"/>
<rect x="299" y="59" width="775" height="10" fill="#F2F2F2"/>
<path d="M272.226 5.90909V19H270.244V7.89062H270.168L267.036 9.93608V8.04403L270.302 5.90909H272.226ZM281.577 11.6236V13.2855H275.773V11.6236H281.577ZM291.418 9.34801C291.35 8.7429 291.069 8.27415 290.574 7.94176C290.08 7.60511 289.458 7.43679 288.708 7.43679C288.171 7.43679 287.706 7.52202 287.314 7.69247C286.922 7.85866 286.618 8.08878 286.4 8.38281C286.187 8.67258 286.081 9.00284 286.081 9.37358C286.081 9.68466 286.153 9.95312 286.298 10.179C286.447 10.4048 286.641 10.5945 286.88 10.7479C287.123 10.897 287.382 11.0227 287.659 11.125C287.936 11.223 288.203 11.304 288.458 11.3679L289.737 11.7003C290.154 11.8026 290.583 11.9411 291.022 12.1158C291.461 12.2905 291.868 12.5206 292.243 12.8061C292.618 13.0916 292.92 13.4453 293.15 13.8672C293.385 14.2891 293.502 14.794 293.502 15.3821C293.502 16.1236 293.31 16.782 292.926 17.3572C292.547 17.9325 291.995 18.3864 291.271 18.7188C290.551 19.0511 289.679 19.2173 288.657 19.2173C287.676 19.2173 286.828 19.0618 286.113 18.7507C285.397 18.4396 284.836 17.9986 284.431 17.4276C284.027 16.8523 283.803 16.1705 283.76 15.3821H285.742C285.78 15.8551 285.934 16.2493 286.202 16.5646C286.475 16.8757 286.822 17.108 287.244 17.2614C287.67 17.4105 288.137 17.4851 288.644 17.4851C289.202 17.4851 289.699 17.3977 290.133 17.223C290.572 17.044 290.917 16.7969 291.169 16.4815C291.42 16.1619 291.546 15.7891 291.546 15.3629C291.546 14.9751 291.435 14.6577 291.213 14.4105C290.996 14.1634 290.7 13.9588 290.325 13.7969C289.954 13.6349 289.534 13.4922 289.066 13.3686L287.519 12.9467C286.471 12.6612 285.64 12.2415 285.026 11.6875C284.417 11.1335 284.112 10.4006 284.112 9.48864C284.112 8.73437 284.316 8.07599 284.725 7.51349C285.135 6.95099 285.689 6.5142 286.387 6.20312C287.086 5.88778 287.875 5.73011 288.752 5.73011C289.639 5.73011 290.421 5.88565 291.098 6.19673C291.78 6.50781 292.317 6.93608 292.709 7.48153C293.101 8.02273 293.306 8.64489 293.323 9.34801H291.418ZM300.292 9.18182V10.7159H294.929V9.18182H300.292ZM296.367 6.82955H298.278V16.1172C298.278 16.4879 298.334 16.767 298.444 16.9545C298.555 17.1378 298.698 17.2635 298.873 17.3317C299.052 17.3956 299.246 17.4276 299.454 17.4276C299.608 17.4276 299.742 17.4169 299.857 17.3956C299.972 17.3743 300.062 17.3572 300.126 17.3445L300.471 18.9233C300.36 18.9659 300.202 19.0085 299.998 19.0511C299.793 19.098 299.537 19.1236 299.231 19.1278C298.728 19.1364 298.259 19.0469 297.824 18.8594C297.39 18.6719 297.038 18.3821 296.77 17.9901C296.501 17.598 296.367 17.1058 296.367 16.5135V6.82955ZM306.532 19.1982C305.565 19.1982 304.732 18.9915 304.033 18.5781C303.338 18.1605 302.801 17.5746 302.422 16.8203C302.047 16.0618 301.859 15.1733 301.859 14.1548C301.859 13.1491 302.047 12.2628 302.422 11.4957C302.801 10.7287 303.33 10.13 304.007 9.69957C304.689 9.26918 305.486 9.05398 306.398 9.05398C306.952 9.05398 307.489 9.1456 308.009 9.32884C308.528 9.51207 308.995 9.79972 309.408 10.1918C309.822 10.5838 310.148 11.093 310.386 11.7195C310.625 12.3416 310.744 13.098 310.744 13.9886V14.6662H302.94V13.2344H308.871C308.871 12.7315 308.769 12.2862 308.565 11.8984C308.36 11.5064 308.072 11.1974 307.702 10.9716C307.335 10.7457 306.905 10.6328 306.411 10.6328C305.874 10.6328 305.405 10.7649 305.004 11.0291C304.608 11.2891 304.301 11.63 304.084 12.0518C303.871 12.4695 303.764 12.9233 303.764 13.4134V14.532C303.764 15.1882 303.879 15.7464 304.109 16.2067C304.344 16.6669 304.67 17.0185 305.087 17.2614C305.505 17.5 305.993 17.6193 306.551 17.6193C306.913 17.6193 307.244 17.5682 307.542 17.4659C307.84 17.3594 308.098 17.2017 308.315 16.9929C308.533 16.7841 308.699 16.5263 308.814 16.2195L310.623 16.5455C310.478 17.0781 310.218 17.5447 309.843 17.9453C309.472 18.3416 309.006 18.6506 308.443 18.8722C307.885 19.0895 307.248 19.1982 306.532 19.1982ZM312.865 22.6818V9.18182H314.731V10.7734H314.891C315.002 10.5689 315.162 10.3324 315.371 10.0639C315.579 9.79545 315.869 9.56108 316.24 9.3608C316.611 9.15625 317.101 9.05398 317.71 9.05398C318.503 9.05398 319.21 9.25426 319.832 9.65483C320.454 10.0554 320.942 10.6328 321.296 11.3871C321.654 12.1413 321.833 13.049 321.833 14.1101C321.833 15.1712 321.656 16.081 321.302 16.8395C320.949 17.5937 320.463 18.1754 319.845 18.5845C319.227 18.9893 318.522 19.1918 317.729 19.1918C317.133 19.1918 316.645 19.0916 316.265 18.8913C315.89 18.6911 315.596 18.4567 315.383 18.1882C315.17 17.9197 315.006 17.6811 314.891 17.4723H314.776V22.6818H312.865ZM314.738 14.0909C314.738 14.7812 314.838 15.3864 315.038 15.9062C315.238 16.4261 315.528 16.8331 315.907 17.1271C316.287 17.4169 316.751 17.5618 317.301 17.5618C317.872 17.5618 318.349 17.4105 318.733 17.108C319.116 16.8011 319.406 16.3857 319.602 15.8615C319.802 15.3374 319.903 14.7472 319.903 14.0909C319.903 13.4432 319.805 12.8615 319.608 12.3459C319.417 11.8303 319.127 11.4233 318.739 11.125C318.356 10.8267 317.876 10.6776 317.301 10.6776C316.747 10.6776 316.278 10.8203 315.895 11.1058C315.515 11.3913 315.228 11.7898 315.032 12.3011C314.836 12.8125 314.738 13.4091 314.738 14.0909Z" fill="#212721"/>
<path d="M208.435 123V108.455H213.889C215.007 108.455 215.944 108.663 216.702 109.08C217.464 109.496 218.039 110.069 218.428 110.798C218.821 111.523 219.017 112.347 219.017 113.27C219.017 114.203 218.821 115.031 218.428 115.756C218.035 116.48 217.455 117.051 216.688 117.467C215.92 117.879 214.976 118.085 213.854 118.085H210.239V115.919H213.499C214.152 115.919 214.687 115.805 215.104 115.578C215.52 115.351 215.828 115.038 216.027 114.641C216.231 114.243 216.332 113.786 216.332 113.27C216.332 112.754 216.231 112.299 216.027 111.906C215.828 111.513 215.518 111.208 215.097 110.99C214.68 110.768 214.143 110.656 213.484 110.656H211.07V123H208.435ZM221.192 123V112.091H223.685V113.909H223.799C223.998 113.279 224.338 112.794 224.821 112.453C225.309 112.107 225.865 111.935 226.49 111.935C226.632 111.935 226.791 111.942 226.966 111.956C227.146 111.965 227.295 111.982 227.414 112.006V114.371C227.305 114.333 227.132 114.3 226.895 114.271C226.663 114.238 226.438 114.222 226.221 114.222C225.752 114.222 225.33 114.323 224.956 114.527C224.587 114.726 224.296 115.003 224.083 115.358C223.87 115.713 223.763 116.123 223.763 116.587V123H221.192ZM233.431 123.213C232.366 123.213 231.442 122.979 230.661 122.51C229.88 122.041 229.274 121.385 228.843 120.543C228.417 119.7 228.204 118.715 228.204 117.588C228.204 116.461 228.417 115.474 228.843 114.626C229.274 113.779 229.88 113.121 230.661 112.652C231.442 112.183 232.366 111.949 233.431 111.949C234.496 111.949 235.42 112.183 236.201 112.652C236.982 113.121 237.586 113.779 238.012 114.626C238.443 115.474 238.658 116.461 238.658 117.588C238.658 118.715 238.443 119.7 238.012 120.543C237.586 121.385 236.982 122.041 236.201 122.51C235.42 122.979 234.496 123.213 233.431 123.213ZM233.445 121.153C234.023 121.153 234.506 120.995 234.894 120.678C235.282 120.356 235.571 119.925 235.761 119.385C235.955 118.845 236.052 118.244 236.052 117.581C236.052 116.913 235.955 116.31 235.761 115.77C235.571 115.225 235.282 114.792 234.894 114.47C234.506 114.148 234.023 113.987 233.445 113.987C232.853 113.987 232.361 114.148 231.968 114.47C231.58 114.792 231.289 115.225 231.094 115.77C230.905 116.31 230.81 116.913 230.81 117.581C230.81 118.244 230.905 118.845 231.094 119.385C231.289 119.925 231.58 120.356 231.968 120.678C232.361 120.995 232.853 121.153 233.445 121.153ZM245.585 127.318C244.662 127.318 243.868 127.193 243.206 126.942C242.543 126.696 242.01 126.364 241.608 125.947C241.205 125.531 240.926 125.069 240.77 124.562L243.085 124.001C243.189 124.214 243.341 124.425 243.539 124.634C243.738 124.847 244.006 125.022 244.342 125.159C244.683 125.301 245.111 125.372 245.627 125.372C246.357 125.372 246.96 125.195 247.439 124.839C247.917 124.489 248.156 123.911 248.156 123.107V121.04H248.028C247.895 121.305 247.701 121.577 247.446 121.857C247.195 122.136 246.861 122.37 246.444 122.56C246.032 122.749 245.514 122.844 244.889 122.844C244.051 122.844 243.291 122.647 242.609 122.254C241.932 121.857 241.392 121.265 240.99 120.479C240.592 119.688 240.393 118.698 240.393 117.51C240.393 116.312 240.592 115.301 240.99 114.477C241.392 113.649 241.934 113.021 242.616 112.595C243.298 112.164 244.058 111.949 244.896 111.949C245.535 111.949 246.061 112.058 246.473 112.276C246.889 112.489 247.221 112.747 247.467 113.05C247.713 113.348 247.9 113.63 248.028 113.895H248.17V112.091H250.706V123.178C250.706 124.11 250.483 124.882 250.038 125.493C249.593 126.104 248.984 126.561 248.213 126.864C247.441 127.167 246.565 127.318 245.585 127.318ZM245.606 120.827C246.151 120.827 246.615 120.694 246.998 120.429C247.382 120.164 247.673 119.783 247.872 119.286C248.071 118.788 248.17 118.192 248.17 117.496C248.17 116.809 248.071 116.208 247.872 115.692C247.678 115.176 247.389 114.776 247.005 114.491C246.627 114.203 246.16 114.058 245.606 114.058C245.033 114.058 244.555 114.207 244.172 114.506C243.788 114.804 243.499 115.214 243.305 115.734C243.111 116.25 243.014 116.838 243.014 117.496C243.014 118.163 243.111 118.748 243.305 119.25C243.504 119.747 243.795 120.135 244.179 120.415C244.567 120.689 245.043 120.827 245.606 120.827ZM253.341 123V112.091H255.833V113.909H255.947C256.146 113.279 256.487 112.794 256.97 112.453C257.458 112.107 258.014 111.935 258.639 111.935C258.781 111.935 258.94 111.942 259.115 111.956C259.295 111.965 259.444 111.982 259.562 112.006V114.371C259.453 114.333 259.28 114.3 259.044 114.271C258.812 114.238 258.587 114.222 258.369 114.222C257.9 114.222 257.479 114.323 257.105 114.527C256.735 114.726 256.444 115.003 256.231 115.358C256.018 115.713 255.912 116.123 255.912 116.587V123H253.341ZM264.214 123.22C263.523 123.22 262.9 123.097 262.346 122.851C261.797 122.6 261.361 122.231 261.039 121.743C260.722 121.255 260.564 120.654 260.564 119.939C260.564 119.323 260.677 118.814 260.904 118.412C261.132 118.009 261.442 117.688 261.835 117.446C262.228 117.205 262.671 117.022 263.163 116.899C263.66 116.771 264.174 116.679 264.704 116.622C265.343 116.556 265.862 116.497 266.26 116.445C266.657 116.388 266.946 116.303 267.126 116.189C267.311 116.071 267.403 115.888 267.403 115.642V115.599C267.403 115.064 267.244 114.65 266.927 114.357C266.61 114.063 266.153 113.916 265.556 113.916C264.927 113.916 264.427 114.054 264.058 114.328C263.693 114.603 263.447 114.927 263.319 115.301L260.919 114.96C261.108 114.297 261.421 113.743 261.856 113.298C262.292 112.848 262.824 112.512 263.454 112.29C264.084 112.062 264.78 111.949 265.542 111.949C266.068 111.949 266.591 112.01 267.112 112.134C267.633 112.257 268.109 112.46 268.539 112.744C268.97 113.024 269.316 113.405 269.576 113.888C269.842 114.371 269.974 114.974 269.974 115.699V123H267.502V121.501H267.417C267.261 121.804 267.041 122.089 266.757 122.354C266.477 122.614 266.125 122.825 265.699 122.986C265.277 123.142 264.782 123.22 264.214 123.22ZM264.882 121.331C265.398 121.331 265.845 121.229 266.224 121.026C266.603 120.817 266.894 120.543 267.098 120.202C267.306 119.861 267.41 119.489 267.41 119.087V117.801C267.33 117.867 267.192 117.929 266.998 117.986C266.809 118.043 266.596 118.092 266.359 118.135C266.122 118.178 265.888 118.215 265.656 118.249C265.424 118.282 265.223 118.31 265.052 118.334C264.669 118.386 264.325 118.471 264.022 118.589C263.719 118.708 263.48 118.874 263.305 119.087C263.13 119.295 263.042 119.565 263.042 119.896C263.042 120.37 263.215 120.727 263.561 120.969C263.906 121.21 264.347 121.331 264.882 121.331ZM272.559 123V112.091H275.017V113.945H275.145C275.372 113.32 275.748 112.832 276.274 112.482C276.799 112.126 277.427 111.949 278.156 111.949C278.895 111.949 279.517 112.129 280.024 112.489C280.535 112.844 280.895 113.329 281.103 113.945H281.217C281.458 113.339 281.866 112.856 282.439 112.496C283.016 112.131 283.7 111.949 284.491 111.949C285.495 111.949 286.314 112.266 286.949 112.901C287.583 113.535 287.9 114.461 287.9 115.678V123H285.322V116.075C285.322 115.398 285.142 114.903 284.782 114.591C284.422 114.274 283.982 114.115 283.461 114.115C282.841 114.115 282.356 114.309 282.005 114.697C281.66 115.081 281.487 115.58 281.487 116.196V123H278.966V115.969C278.966 115.405 278.795 114.955 278.454 114.619C278.118 114.283 277.678 114.115 277.133 114.115C276.764 114.115 276.428 114.21 276.125 114.399C275.822 114.584 275.58 114.847 275.4 115.188C275.22 115.524 275.13 115.917 275.13 116.366V123H272.559ZM304.092 114.974L301.748 115.23C301.682 114.993 301.566 114.771 301.4 114.562C301.239 114.354 301.021 114.186 300.746 114.058C300.472 113.93 300.136 113.866 299.738 113.866C299.203 113.866 298.753 113.982 298.388 114.214C298.029 114.446 297.851 114.747 297.856 115.116C297.851 115.434 297.967 115.692 298.204 115.891C298.445 116.089 298.843 116.253 299.397 116.381L301.258 116.778C302.29 117.001 303.057 117.354 303.559 117.837C304.066 118.32 304.321 118.952 304.326 119.733C304.321 120.42 304.12 121.026 303.722 121.551C303.329 122.072 302.782 122.479 302.082 122.773C301.381 123.066 300.576 123.213 299.667 123.213C298.332 123.213 297.257 122.934 296.442 122.375C295.628 121.812 295.143 121.028 294.987 120.024L297.494 119.783C297.607 120.275 297.849 120.647 298.218 120.898C298.587 121.149 299.068 121.274 299.66 121.274C300.271 121.274 300.761 121.149 301.13 120.898C301.504 120.647 301.691 120.337 301.691 119.967C301.691 119.655 301.57 119.397 301.329 119.193C301.092 118.99 300.723 118.833 300.221 118.724L298.36 118.334C297.314 118.116 296.54 117.749 296.038 117.233C295.536 116.712 295.287 116.054 295.292 115.259C295.287 114.586 295.469 114.004 295.839 113.511C296.213 113.014 296.731 112.631 297.394 112.361C298.062 112.086 298.831 111.949 299.702 111.949C300.981 111.949 301.987 112.221 302.721 112.766C303.46 113.31 303.916 114.046 304.092 114.974ZM311.276 123.213C310.182 123.213 309.237 122.986 308.442 122.531C307.651 122.072 307.043 121.423 306.616 120.585C306.19 119.742 305.977 118.75 305.977 117.609C305.977 116.487 306.19 115.502 306.616 114.655C307.047 113.803 307.649 113.14 308.42 112.666C309.192 112.188 310.099 111.949 311.141 111.949C311.813 111.949 312.447 112.058 313.044 112.276C313.645 112.489 314.176 112.82 314.635 113.27C315.099 113.72 315.464 114.293 315.729 114.989C315.994 115.68 316.126 116.504 316.126 117.46V118.249H307.185V116.516H313.662C313.657 116.023 313.551 115.585 313.342 115.202C313.134 114.813 312.843 114.508 312.469 114.286C312.099 114.063 311.669 113.952 311.176 113.952C310.651 113.952 310.189 114.08 309.791 114.335C309.393 114.586 309.083 114.918 308.861 115.33C308.643 115.737 308.532 116.184 308.527 116.672V118.185C308.527 118.819 308.643 119.364 308.875 119.818C309.107 120.268 309.431 120.614 309.848 120.855C310.265 121.092 310.752 121.21 311.311 121.21C311.685 121.21 312.024 121.158 312.327 121.054C312.63 120.945 312.893 120.786 313.115 120.578C313.338 120.37 313.506 120.112 313.619 119.804L316.02 120.074C315.868 120.708 315.58 121.262 315.153 121.736C314.732 122.205 314.192 122.569 313.534 122.83C312.876 123.085 312.123 123.213 311.276 123.213ZM320.873 108.455V123H318.301V108.455H320.873ZM328.346 123.213C327.252 123.213 326.308 122.986 325.512 122.531C324.721 122.072 324.113 121.423 323.687 120.585C323.261 119.742 323.048 118.75 323.048 117.609C323.048 116.487 323.261 115.502 323.687 114.655C324.118 113.803 324.719 113.14 325.491 112.666C326.263 112.188 327.169 111.949 328.211 111.949C328.883 111.949 329.518 112.058 330.114 112.276C330.716 112.489 331.246 112.82 331.705 113.27C332.169 113.72 332.534 114.293 332.799 114.989C333.064 115.68 333.197 116.504 333.197 117.46V118.249H324.255V116.516H330.732C330.728 116.023 330.621 115.585 330.413 115.202C330.204 114.813 329.913 114.508 329.539 114.286C329.17 114.063 328.739 113.952 328.246 113.952C327.721 113.952 327.259 114.08 326.862 114.335C326.464 114.586 326.154 114.918 325.931 115.33C325.713 115.737 325.602 116.184 325.597 116.672V118.185C325.597 118.819 325.713 119.364 325.945 119.818C326.177 120.268 326.502 120.614 326.918 120.855C327.335 121.092 327.823 121.21 328.381 121.21C328.755 121.21 329.094 121.158 329.397 121.054C329.7 120.945 329.963 120.786 330.185 120.578C330.408 120.37 330.576 120.112 330.69 119.804L333.09 120.074C332.939 120.708 332.65 121.262 332.224 121.736C331.802 122.205 331.263 122.569 330.604 122.83C329.946 123.085 329.193 123.213 328.346 123.213ZM340.13 123.213C339.041 123.213 338.106 122.974 337.325 122.496C336.548 122.018 335.949 121.357 335.528 120.514C335.111 119.667 334.903 118.691 334.903 117.588C334.903 116.48 335.116 115.502 335.542 114.655C335.968 113.803 336.57 113.14 337.346 112.666C338.127 112.188 339.051 111.949 340.116 111.949C341.002 111.949 341.785 112.112 342.467 112.439C343.154 112.761 343.7 113.218 344.108 113.81C344.515 114.397 344.747 115.083 344.804 115.869H342.346C342.247 115.344 342.01 114.906 341.636 114.555C341.267 114.2 340.772 114.023 340.152 114.023C339.626 114.023 339.164 114.165 338.767 114.449C338.369 114.728 338.059 115.131 337.836 115.656C337.618 116.182 337.51 116.812 337.51 117.545C337.51 118.289 337.618 118.928 337.836 119.463C338.054 119.993 338.359 120.403 338.752 120.692C339.15 120.976 339.617 121.118 340.152 121.118C340.53 121.118 340.869 121.047 341.167 120.905C341.47 120.758 341.724 120.547 341.927 120.273C342.131 119.998 342.27 119.664 342.346 119.271H344.804C344.742 120.043 344.515 120.727 344.122 121.324C343.729 121.916 343.194 122.38 342.517 122.716C341.84 123.047 341.044 123.213 340.13 123.213ZM352.362 112.091V114.08H346.091V112.091H352.362ZM347.639 109.477H350.21V119.719C350.21 120.064 350.262 120.33 350.366 120.514C350.475 120.694 350.617 120.817 350.793 120.884C350.968 120.95 351.162 120.983 351.375 120.983C351.536 120.983 351.683 120.971 351.815 120.947C351.953 120.924 352.057 120.902 352.128 120.884L352.561 122.893C352.424 122.941 352.227 122.993 351.972 123.05C351.721 123.107 351.413 123.14 351.048 123.149C350.404 123.168 349.824 123.071 349.308 122.858C348.792 122.64 348.383 122.304 348.08 121.849C347.781 121.395 347.634 120.827 347.639 120.145V109.477ZM354.512 123V112.091H357.083V123H354.512ZM355.805 110.543C355.398 110.543 355.047 110.408 354.754 110.138C354.46 109.863 354.314 109.534 354.314 109.151C354.314 108.762 354.46 108.433 354.754 108.163C355.047 107.889 355.398 107.751 355.805 107.751C356.217 107.751 356.567 107.889 356.856 108.163C357.15 108.433 357.297 108.762 357.297 109.151C357.297 109.534 357.15 109.863 356.856 110.138C356.567 110.408 356.217 110.543 355.805 110.543ZM364.486 123.213C363.42 123.213 362.497 122.979 361.716 122.51C360.935 122.041 360.329 121.385 359.898 120.543C359.472 119.7 359.259 118.715 359.259 117.588C359.259 116.461 359.472 115.474 359.898 114.626C360.329 113.779 360.935 113.121 361.716 112.652C362.497 112.183 363.42 111.949 364.486 111.949C365.551 111.949 366.474 112.183 367.256 112.652C368.037 113.121 368.641 113.779 369.067 114.626C369.498 115.474 369.713 116.461 369.713 117.588C369.713 118.715 369.498 119.7 369.067 120.543C368.641 121.385 368.037 122.041 367.256 122.51C366.474 122.979 365.551 123.213 364.486 123.213ZM364.5 121.153C365.078 121.153 365.561 120.995 365.949 120.678C366.337 120.356 366.626 119.925 366.815 119.385C367.009 118.845 367.107 118.244 367.107 117.581C367.107 116.913 367.009 116.31 366.815 115.77C366.626 115.225 366.337 114.792 365.949 114.47C365.561 114.148 365.078 113.987 364.5 113.987C363.908 113.987 363.416 114.148 363.023 114.47C362.634 114.792 362.343 115.225 362.149 115.77C361.96 116.31 361.865 116.913 361.865 117.581C361.865 118.244 361.96 118.845 362.149 119.385C362.343 119.925 362.634 120.356 363.023 120.678C363.416 120.995 363.908 121.153 364.5 121.153ZM374.466 116.608V123H371.895V112.091H374.353V113.945H374.48C374.731 113.334 375.132 112.848 375.681 112.489C376.235 112.129 376.919 111.949 377.733 111.949C378.486 111.949 379.142 112.11 379.701 112.432C380.264 112.754 380.7 113.22 381.007 113.831C381.32 114.442 381.474 115.183 381.469 116.054V123H378.898V116.452C378.898 115.723 378.709 115.152 378.33 114.74C377.956 114.328 377.437 114.122 376.775 114.122C376.325 114.122 375.925 114.222 375.574 114.42C375.229 114.615 374.956 114.896 374.757 115.266C374.563 115.635 374.466 116.082 374.466 116.608Z" fill="#2D6CB1"/>
<path d="M481.176 109.909H482.761V118.577C482.761 119.472 482.55 120.271 482.129 120.974C481.711 121.673 481.121 122.224 480.358 122.629C479.595 123.03 478.7 123.23 477.673 123.23C476.646 123.23 475.751 123.03 474.989 122.629C474.226 122.224 473.634 121.673 473.212 120.974C472.794 120.271 472.585 119.472 472.585 118.577V109.909H474.17V118.449C474.17 119.088 474.311 119.657 474.592 120.156C474.874 120.65 475.274 121.04 475.794 121.325C476.318 121.607 476.945 121.747 477.673 121.747C478.402 121.747 479.028 121.607 479.553 121.325C480.077 121.04 480.477 120.65 480.754 120.156C481.036 119.657 481.176 119.088 481.176 118.449V109.909ZM485.722 126.682V113.182H487.18V114.741H487.359C487.47 114.571 487.623 114.354 487.819 114.089C488.019 113.821 488.305 113.582 488.676 113.374C489.051 113.161 489.558 113.054 490.197 113.054C491.024 113.054 491.752 113.261 492.383 113.674C493.014 114.087 493.506 114.673 493.86 115.432C494.213 116.19 494.39 117.085 494.39 118.116C494.39 119.156 494.213 120.058 493.86 120.82C493.506 121.579 493.016 122.167 492.389 122.585C491.763 122.998 491.041 123.205 490.222 123.205C489.592 123.205 489.087 123.1 488.708 122.891C488.328 122.678 488.036 122.437 487.832 122.169C487.627 121.896 487.47 121.67 487.359 121.491H487.231V126.682H485.722ZM487.205 118.091C487.205 118.832 487.314 119.487 487.531 120.053C487.749 120.616 488.066 121.057 488.484 121.376C488.901 121.692 489.413 121.849 490.018 121.849C490.649 121.849 491.175 121.683 491.597 121.351C492.023 121.014 492.343 120.562 492.556 119.996C492.773 119.425 492.882 118.79 492.882 118.091C492.882 117.401 492.775 116.778 492.562 116.224C492.353 115.666 492.036 115.225 491.61 114.901C491.188 114.573 490.657 114.409 490.018 114.409C489.404 114.409 488.889 114.565 488.471 114.876C488.053 115.183 487.738 115.613 487.525 116.167C487.312 116.717 487.205 117.358 487.205 118.091ZM498.2 109.909V123H496.691V109.909H498.2ZM504.951 123.205C504.065 123.205 503.287 122.994 502.618 122.572C501.953 122.15 501.434 121.56 501.059 120.801C500.688 120.043 500.502 119.156 500.502 118.142C500.502 117.119 500.688 116.227 501.059 115.464C501.434 114.701 501.953 114.109 502.618 113.687C503.287 113.265 504.065 113.054 504.951 113.054C505.838 113.054 506.613 113.265 507.278 113.687C507.947 114.109 508.467 114.701 508.838 115.464C509.213 116.227 509.4 117.119 509.4 118.142C509.4 119.156 509.213 120.043 508.838 120.801C508.467 121.56 507.947 122.15 507.278 122.572C506.613 122.994 505.838 123.205 504.951 123.205ZM504.951 121.849C505.625 121.849 506.179 121.677 506.613 121.332C507.048 120.987 507.37 120.533 507.578 119.97C507.787 119.408 507.892 118.798 507.892 118.142C507.892 117.486 507.787 116.874 507.578 116.308C507.37 115.741 507.048 115.283 506.613 114.933C506.179 114.584 505.625 114.409 504.951 114.409C504.278 114.409 503.724 114.584 503.289 114.933C502.855 115.283 502.533 115.741 502.324 116.308C502.115 116.874 502.011 117.486 502.011 118.142C502.011 118.798 502.115 119.408 502.324 119.97C502.533 120.533 502.855 120.987 503.289 121.332C503.724 121.677 504.278 121.849 504.951 121.849ZM514.592 123.23C513.97 123.23 513.405 123.113 512.898 122.879C512.391 122.64 511.988 122.297 511.69 121.849C511.392 121.398 511.243 120.852 511.243 120.213C511.243 119.651 511.354 119.195 511.575 118.845C511.797 118.491 512.093 118.214 512.464 118.014C512.834 117.814 513.243 117.665 513.691 117.567C514.143 117.464 514.596 117.384 515.052 117.324C515.649 117.247 516.133 117.19 516.503 117.151C516.878 117.109 517.151 117.038 517.322 116.94C517.496 116.842 517.584 116.672 517.584 116.429V116.378C517.584 115.747 517.411 115.257 517.066 114.908C516.725 114.558 516.207 114.384 515.513 114.384C514.792 114.384 514.228 114.541 513.819 114.857C513.41 115.172 513.122 115.509 512.956 115.866L511.524 115.355C511.78 114.759 512.121 114.294 512.547 113.962C512.977 113.625 513.446 113.391 513.953 113.259C514.464 113.122 514.967 113.054 515.461 113.054C515.777 113.054 516.139 113.092 516.548 113.169C516.961 113.241 517.36 113.393 517.743 113.623C518.131 113.853 518.453 114.2 518.709 114.665C518.964 115.129 519.092 115.751 519.092 116.531V123H517.584V121.67H517.507C517.405 121.884 517.234 122.112 516.996 122.354C516.757 122.597 516.439 122.804 516.043 122.974C515.647 123.145 515.163 123.23 514.592 123.23ZM514.822 121.875C515.419 121.875 515.922 121.758 516.331 121.523C516.744 121.289 517.055 120.987 517.264 120.616C517.477 120.245 517.584 119.855 517.584 119.446V118.065C517.52 118.142 517.379 118.212 517.162 118.276C516.949 118.336 516.702 118.389 516.42 118.436C516.143 118.479 515.873 118.517 515.608 118.551C515.349 118.581 515.138 118.607 514.976 118.628C514.584 118.679 514.217 118.762 513.876 118.877C513.54 118.988 513.267 119.156 513.058 119.382C512.854 119.604 512.751 119.906 512.751 120.29C512.751 120.814 512.945 121.21 513.333 121.479C513.725 121.743 514.221 121.875 514.822 121.875ZM525.553 123.205C524.735 123.205 524.012 122.998 523.386 122.585C522.76 122.167 522.27 121.579 521.916 120.82C521.562 120.058 521.385 119.156 521.385 118.116C521.385 117.085 521.562 116.19 521.916 115.432C522.27 114.673 522.762 114.087 523.392 113.674C524.023 113.261 524.752 113.054 525.578 113.054C526.218 113.054 526.723 113.161 527.093 113.374C527.468 113.582 527.754 113.821 527.95 114.089C528.15 114.354 528.306 114.571 528.417 114.741H528.544V109.909H530.053V123H528.596V121.491H528.417C528.306 121.67 528.148 121.896 527.944 122.169C527.739 122.437 527.447 122.678 527.068 122.891C526.689 123.1 526.184 123.205 525.553 123.205ZM525.757 121.849C526.363 121.849 526.874 121.692 527.292 121.376C527.709 121.057 528.027 120.616 528.244 120.053C528.461 119.487 528.57 118.832 528.57 118.091C528.57 117.358 528.463 116.717 528.25 116.167C528.037 115.613 527.722 115.183 527.304 114.876C526.887 114.565 526.371 114.409 525.757 114.409C525.118 114.409 524.586 114.573 524.159 114.901C523.738 115.225 523.42 115.666 523.207 116.224C522.998 116.778 522.894 117.401 522.894 118.091C522.894 118.79 523 119.425 523.213 119.996C523.431 120.562 523.75 121.014 524.172 121.351C524.598 121.683 525.127 121.849 525.757 121.849ZM533.025 123V113.182H534.534V123H533.025ZM533.792 111.545C533.498 111.545 533.245 111.445 533.032 111.245C532.823 111.045 532.718 110.804 532.718 110.523C532.718 110.241 532.823 110.001 533.032 109.8C533.245 109.6 533.498 109.5 533.792 109.5C534.086 109.5 534.338 109.6 534.547 109.8C534.76 110.001 534.866 110.241 534.866 110.523C534.866 110.804 534.76 111.045 534.547 111.245C534.338 111.445 534.086 111.545 533.792 111.545ZM538.805 117.094V123H537.297V113.182H538.754V114.716H538.882C539.112 114.217 539.461 113.817 539.93 113.514C540.399 113.207 541.004 113.054 541.746 113.054C542.41 113.054 542.992 113.19 543.491 113.463C543.989 113.732 544.377 114.141 544.654 114.69C544.931 115.236 545.069 115.926 545.069 116.761V123H543.561V116.864C543.561 116.092 543.361 115.491 542.96 115.061C542.559 114.626 542.01 114.409 541.311 114.409C540.829 114.409 540.399 114.513 540.02 114.722C539.645 114.931 539.349 115.236 539.131 115.636C538.914 116.037 538.805 116.523 538.805 117.094ZM551.789 126.886C551.06 126.886 550.434 126.793 549.91 126.605C549.386 126.422 548.949 126.179 548.599 125.876C548.254 125.578 547.979 125.259 547.775 124.918L548.977 124.074C549.113 124.253 549.286 124.457 549.494 124.688C549.703 124.922 549.989 125.124 550.351 125.295C550.717 125.469 551.197 125.557 551.789 125.557C552.582 125.557 553.236 125.365 553.751 124.982C554.267 124.598 554.525 123.997 554.525 123.179V121.185H554.397C554.286 121.364 554.129 121.585 553.924 121.849C553.724 122.109 553.434 122.342 553.055 122.546C552.68 122.746 552.173 122.847 551.533 122.847C550.741 122.847 550.029 122.659 549.398 122.284C548.772 121.909 548.276 121.364 547.909 120.648C547.547 119.932 547.366 119.062 547.366 118.04C547.366 117.034 547.543 116.158 547.896 115.413C548.25 114.663 548.742 114.083 549.373 113.674C550.004 113.261 550.732 113.054 551.559 113.054C552.198 113.054 552.705 113.161 553.08 113.374C553.46 113.582 553.749 113.821 553.95 114.089C554.154 114.354 554.312 114.571 554.423 114.741H554.576V113.182H556.033V123.281C556.033 124.125 555.842 124.811 555.458 125.339C555.079 125.872 554.567 126.262 553.924 126.509C553.285 126.761 552.573 126.886 551.789 126.886ZM551.738 121.491C552.343 121.491 552.854 121.353 553.272 121.076C553.69 120.799 554.007 120.401 554.224 119.881C554.442 119.361 554.55 118.739 554.55 118.014C554.55 117.307 554.444 116.683 554.231 116.141C554.018 115.6 553.702 115.176 553.285 114.869C552.867 114.562 552.352 114.409 551.738 114.409C551.099 114.409 550.566 114.571 550.14 114.895C549.718 115.219 549.401 115.653 549.188 116.199C548.979 116.744 548.874 117.349 548.874 118.014C548.874 118.696 548.981 119.299 549.194 119.823C549.411 120.343 549.731 120.752 550.153 121.05C550.579 121.344 551.107 121.491 551.738 121.491ZM568.102 123H564.062V109.909H568.281C569.55 109.909 570.637 110.171 571.54 110.695C572.444 111.215 573.136 111.963 573.618 112.939C574.099 113.911 574.34 115.074 574.34 116.429C574.34 117.793 574.097 118.967 573.612 119.951C573.126 120.931 572.418 121.685 571.489 122.214C570.56 122.738 569.431 123 568.102 123ZM565.647 121.594H567.999C569.082 121.594 569.979 121.385 570.69 120.967C571.402 120.55 571.933 119.955 572.282 119.184C572.631 118.413 572.806 117.494 572.806 116.429C572.806 115.372 572.634 114.462 572.288 113.7C571.943 112.933 571.428 112.344 570.741 111.935C570.055 111.522 569.201 111.315 568.178 111.315H565.647V121.594ZM580.783 123.205C579.897 123.205 579.119 122.994 578.45 122.572C577.786 122.15 577.266 121.56 576.891 120.801C576.52 120.043 576.335 119.156 576.335 118.142C576.335 117.119 576.52 116.227 576.891 115.464C577.266 114.701 577.786 114.109 578.45 113.687C579.119 113.265 579.897 113.054 580.783 113.054C581.67 113.054 582.445 113.265 583.11 113.687C583.779 114.109 584.299 114.701 584.67 115.464C585.045 116.227 585.232 117.119 585.232 118.142C585.232 119.156 585.045 120.043 584.67 120.801C584.299 121.56 583.779 122.15 583.11 122.572C582.445 122.994 581.67 123.205 580.783 123.205ZM580.783 121.849C581.457 121.849 582.011 121.677 582.445 121.332C582.88 120.987 583.202 120.533 583.411 119.97C583.619 119.408 583.724 118.798 583.724 118.142C583.724 117.486 583.619 116.874 583.411 116.308C583.202 115.741 582.88 115.283 582.445 114.933C582.011 114.584 581.457 114.409 580.783 114.409C580.11 114.409 579.556 114.584 579.121 114.933C578.687 115.283 578.365 115.741 578.156 116.308C577.947 116.874 577.843 117.486 577.843 118.142C577.843 118.798 577.947 119.408 578.156 119.97C578.365 120.533 578.687 120.987 579.121 121.332C579.556 121.677 580.11 121.849 580.783 121.849ZM591.524 123.205C590.603 123.205 589.811 122.987 589.146 122.553C588.481 122.118 587.97 121.519 587.612 120.756C587.254 119.994 587.075 119.122 587.075 118.142C587.075 117.145 587.258 116.265 587.624 115.502C587.995 114.735 588.511 114.136 589.171 113.706C589.836 113.271 590.612 113.054 591.498 113.054C592.188 113.054 592.811 113.182 593.365 113.438C593.919 113.693 594.372 114.051 594.726 114.511C595.08 114.972 595.299 115.509 595.384 116.122H593.876C593.761 115.675 593.505 115.278 593.109 114.933C592.717 114.584 592.188 114.409 591.524 114.409C590.936 114.409 590.42 114.562 589.977 114.869C589.538 115.172 589.195 115.6 588.948 116.154C588.705 116.704 588.583 117.349 588.583 118.091C588.583 118.849 588.703 119.51 588.941 120.072C589.184 120.635 589.525 121.072 589.964 121.383C590.407 121.694 590.927 121.849 591.524 121.849C591.916 121.849 592.271 121.781 592.591 121.645C592.911 121.509 593.181 121.312 593.403 121.057C593.624 120.801 593.782 120.494 593.876 120.136H595.384C595.299 120.716 595.088 121.238 594.752 121.702C594.419 122.163 593.978 122.529 593.428 122.802C592.883 123.07 592.248 123.205 591.524 123.205ZM603.777 118.986V113.182H605.286V123H603.777V121.338H603.675C603.445 121.837 603.087 122.261 602.601 122.61C602.115 122.955 601.502 123.128 600.76 123.128C600.146 123.128 599.601 122.994 599.124 122.725C598.646 122.452 598.271 122.043 597.999 121.498C597.726 120.948 597.59 120.256 597.59 119.42V113.182H599.098V119.318C599.098 120.034 599.298 120.605 599.699 121.031C600.104 121.457 600.619 121.67 601.246 121.67C601.621 121.67 602.002 121.575 602.39 121.383C602.782 121.191 603.11 120.897 603.374 120.501C603.643 120.104 603.777 119.599 603.777 118.986ZM608.049 123V113.182H609.506V114.716H609.634C609.838 114.192 610.169 113.785 610.625 113.495C611.081 113.201 611.628 113.054 612.267 113.054C612.915 113.054 613.454 113.201 613.885 113.495C614.319 113.785 614.658 114.192 614.901 114.716H615.003C615.255 114.209 615.632 113.806 616.135 113.508C616.637 113.205 617.24 113.054 617.944 113.054C618.821 113.054 619.539 113.329 620.098 113.879C620.656 114.424 620.935 115.274 620.935 116.429V123H619.426V116.429C619.426 115.705 619.228 115.187 618.832 114.876C618.436 114.565 617.969 114.409 617.432 114.409C616.742 114.409 616.207 114.618 615.828 115.036C615.449 115.449 615.259 115.973 615.259 116.608V123H613.725V116.276C613.725 115.717 613.544 115.268 613.181 114.927C612.819 114.582 612.353 114.409 611.782 114.409C611.39 114.409 611.023 114.513 610.682 114.722C610.346 114.931 610.073 115.221 609.864 115.592C609.659 115.958 609.557 116.382 609.557 116.864V123H608.049ZM627.81 123.205C626.864 123.205 626.048 122.996 625.362 122.578C624.68 122.156 624.153 121.568 623.783 120.814C623.416 120.055 623.233 119.173 623.233 118.168C623.233 117.162 623.416 116.276 623.783 115.509C624.153 114.737 624.669 114.136 625.33 113.706C625.994 113.271 626.77 113.054 627.656 113.054C628.168 113.054 628.673 113.139 629.171 113.31C629.67 113.48 630.124 113.757 630.533 114.141C630.942 114.52 631.268 115.023 631.511 115.649C631.754 116.276 631.875 117.047 631.875 117.963V118.602H624.307V117.298H630.341C630.341 116.744 630.23 116.25 630.009 115.815C629.791 115.381 629.48 115.038 629.075 114.786C628.675 114.535 628.202 114.409 627.656 114.409C627.055 114.409 626.536 114.558 626.097 114.857C625.662 115.151 625.327 115.534 625.093 116.007C624.859 116.48 624.741 116.987 624.741 117.528V118.398C624.741 119.139 624.869 119.768 625.125 120.283C625.385 120.795 625.745 121.185 626.205 121.453C626.665 121.717 627.2 121.849 627.81 121.849C628.206 121.849 628.564 121.794 628.884 121.683C629.207 121.568 629.487 121.398 629.721 121.172C629.955 120.942 630.136 120.656 630.264 120.315L631.722 120.724C631.568 121.219 631.31 121.653 630.948 122.028C630.586 122.399 630.138 122.689 629.606 122.898C629.073 123.102 628.474 123.205 627.81 123.205ZM635.678 117.094V123H634.17V113.182H635.627V114.716H635.755C635.985 114.217 636.335 113.817 636.803 113.514C637.272 113.207 637.877 113.054 638.619 113.054C639.283 113.054 639.865 113.19 640.364 113.463C640.862 113.732 641.25 114.141 641.527 114.69C641.804 115.236 641.942 115.926 641.942 116.761V123H640.434V116.864C640.434 116.092 640.234 115.491 639.833 115.061C639.433 114.626 638.883 114.409 638.184 114.409C637.702 114.409 637.272 114.513 636.893 114.722C636.518 114.931 636.222 115.236 636.004 115.636C635.787 116.037 635.678 116.523 635.678 117.094ZM648.969 113.182V114.46H643.881V113.182H648.969ZM645.364 110.83H646.872V120.188C646.872 120.614 646.934 120.933 647.058 121.146C647.186 121.355 647.347 121.496 647.544 121.568C647.744 121.636 647.955 121.67 648.176 121.67C648.343 121.67 648.479 121.662 648.585 121.645C648.692 121.624 648.777 121.607 648.841 121.594L649.148 122.949C649.046 122.987 648.903 123.026 648.72 123.064C648.536 123.107 648.304 123.128 648.023 123.128C647.597 123.128 647.179 123.036 646.77 122.853C646.365 122.67 646.029 122.391 645.76 122.016C645.496 121.641 645.364 121.168 645.364 120.597V110.83ZM658.017 115.381L656.662 115.764C656.577 115.538 656.451 115.319 656.285 115.106C656.123 114.888 655.901 114.71 655.62 114.569C655.339 114.428 654.979 114.358 654.54 114.358C653.939 114.358 653.438 114.496 653.037 114.773C652.641 115.046 652.443 115.393 652.443 115.815C652.443 116.19 652.579 116.487 652.852 116.704C653.125 116.921 653.551 117.102 654.131 117.247L655.588 117.605C656.466 117.818 657.12 118.144 657.55 118.583C657.981 119.018 658.196 119.578 658.196 120.264C658.196 120.827 658.034 121.33 657.71 121.773C657.39 122.216 656.943 122.565 656.368 122.821C655.792 123.077 655.123 123.205 654.361 123.205C653.359 123.205 652.53 122.987 651.874 122.553C651.218 122.118 650.802 121.483 650.628 120.648L652.059 120.29C652.196 120.818 652.454 121.214 652.833 121.479C653.216 121.743 653.717 121.875 654.335 121.875C655.038 121.875 655.596 121.726 656.01 121.428C656.427 121.125 656.636 120.763 656.636 120.341C656.636 120 656.517 119.714 656.278 119.484C656.04 119.25 655.673 119.075 655.179 118.96L653.542 118.577C652.643 118.364 651.983 118.033 651.561 117.586C651.143 117.134 650.934 116.57 650.934 115.892C650.934 115.338 651.09 114.848 651.401 114.422C651.716 113.996 652.145 113.661 652.686 113.418C653.231 113.175 653.849 113.054 654.54 113.054C655.511 113.054 656.274 113.267 656.828 113.693C657.386 114.119 657.782 114.682 658.017 115.381Z" fill="#212721"/>
<path d="M735.122 109.909L739.009 120.929H739.162L743.048 109.909H744.71L739.903 123H738.267L733.46 109.909H735.122ZM749.747 123.205C748.801 123.205 747.985 122.996 747.299 122.578C746.617 122.156 746.091 121.568 745.72 120.814C745.354 120.055 745.17 119.173 745.17 118.168C745.17 117.162 745.354 116.276 745.72 115.509C746.091 114.737 746.607 114.136 747.267 113.706C747.932 113.271 748.707 113.054 749.594 113.054C750.105 113.054 750.61 113.139 751.109 113.31C751.607 113.48 752.061 113.757 752.47 114.141C752.879 114.52 753.205 115.023 753.448 115.649C753.691 116.276 753.812 117.047 753.812 117.963V118.602H746.244V117.298H752.278C752.278 116.744 752.168 116.25 751.946 115.815C751.729 115.381 751.418 115.038 751.013 114.786C750.612 114.535 750.139 114.409 749.594 114.409C748.993 114.409 748.473 114.558 748.034 114.857C747.599 115.151 747.265 115.534 747.031 116.007C746.796 116.48 746.679 116.987 746.679 117.528V118.398C746.679 119.139 746.807 119.768 747.062 120.283C747.322 120.795 747.683 121.185 748.143 121.453C748.603 121.717 749.138 121.849 749.747 121.849C750.143 121.849 750.501 121.794 750.821 121.683C751.145 121.568 751.424 121.398 751.658 121.172C751.893 120.942 752.074 120.656 752.202 120.315L753.659 120.724C753.506 121.219 753.248 121.653 752.886 122.028C752.523 122.399 752.076 122.689 751.543 122.898C751.011 123.102 750.412 123.205 749.747 123.205ZM756.107 123V113.182H757.565V114.665H757.667C757.846 114.179 758.17 113.785 758.638 113.482C759.107 113.18 759.636 113.028 760.224 113.028C760.335 113.028 760.473 113.031 760.639 113.035C760.805 113.039 760.931 113.045 761.016 113.054V114.588C760.965 114.575 760.848 114.556 760.665 114.531C760.486 114.501 760.296 114.486 760.096 114.486C759.619 114.486 759.192 114.586 758.817 114.786C758.447 114.982 758.153 115.255 757.935 115.604C757.722 115.95 757.616 116.344 757.616 116.787V123H756.107ZM762.805 123V113.182H764.313V123H762.805ZM763.572 111.545C763.278 111.545 763.024 111.445 762.811 111.245C762.602 111.045 762.498 110.804 762.498 110.523C762.498 110.241 762.602 110.001 762.811 109.8C763.024 109.6 763.278 109.5 763.572 109.5C763.866 109.5 764.117 109.6 764.326 109.8C764.539 110.001 764.645 110.241 764.645 110.523C764.645 110.804 764.539 111.045 764.326 111.245C764.117 111.445 763.866 111.545 763.572 111.545ZM771.448 113.182V114.46H766.156V113.182H771.448ZM767.741 123V111.827C767.741 111.264 767.873 110.795 768.137 110.42C768.401 110.045 768.744 109.764 769.166 109.577C769.588 109.389 770.033 109.295 770.502 109.295C770.873 109.295 771.175 109.325 771.41 109.385C771.644 109.445 771.819 109.5 771.934 109.551L771.499 110.855C771.423 110.83 771.316 110.798 771.18 110.759C771.048 110.721 770.873 110.702 770.656 110.702C770.157 110.702 769.797 110.827 769.575 111.079C769.358 111.33 769.249 111.699 769.249 112.185V123H767.741ZM773.562 123V113.182H775.071V123H773.562ZM774.329 111.545C774.035 111.545 773.782 111.445 773.569 111.245C773.36 111.045 773.256 110.804 773.256 110.523C773.256 110.241 773.36 110.001 773.569 109.8C773.782 109.6 774.035 109.5 774.329 109.5C774.623 109.5 774.875 109.6 775.084 109.8C775.297 110.001 775.403 110.241 775.403 110.523C775.403 110.804 775.297 111.045 775.084 111.245C774.875 111.445 774.623 111.545 774.329 111.545ZM781.822 123.205C780.902 123.205 780.109 122.987 779.445 122.553C778.78 122.118 778.268 121.519 777.911 120.756C777.553 119.994 777.374 119.122 777.374 118.142C777.374 117.145 777.557 116.265 777.923 115.502C778.294 114.735 778.81 114.136 779.47 113.706C780.135 113.271 780.911 113.054 781.797 113.054C782.487 113.054 783.109 113.182 783.663 113.438C784.217 113.693 784.671 114.051 785.025 114.511C785.379 114.972 785.598 115.509 785.683 116.122H784.175C784.06 115.675 783.804 115.278 783.408 114.933C783.016 114.584 782.487 114.409 781.822 114.409C781.234 114.409 780.719 114.562 780.276 114.869C779.837 115.172 779.494 115.6 779.246 116.154C779.004 116.704 778.882 117.349 778.882 118.091C778.882 118.849 779.001 119.51 779.24 120.072C779.483 120.635 779.824 121.072 780.263 121.383C780.706 121.694 781.226 121.849 781.822 121.849C782.214 121.849 782.57 121.781 782.89 121.645C783.21 121.509 783.48 121.312 783.702 121.057C783.923 120.801 784.081 120.494 784.175 120.136H785.683C785.598 120.716 785.387 121.238 785.05 121.702C784.718 122.163 784.277 122.529 783.727 122.802C783.182 123.07 782.547 123.205 781.822 123.205ZM790.778 123.23C790.156 123.23 789.591 123.113 789.084 122.879C788.577 122.64 788.174 122.297 787.876 121.849C787.577 121.398 787.428 120.852 787.428 120.213C787.428 119.651 787.539 119.195 787.761 118.845C787.982 118.491 788.278 118.214 788.649 118.014C789.02 117.814 789.429 117.665 789.876 117.567C790.328 117.464 790.782 117.384 791.238 117.324C791.835 117.247 792.318 117.19 792.689 117.151C793.064 117.109 793.337 117.038 793.507 116.94C793.682 116.842 793.769 116.672 793.769 116.429V116.378C793.769 115.747 793.597 115.257 793.251 114.908C792.911 114.558 792.393 114.384 791.698 114.384C790.978 114.384 790.413 114.541 790.004 114.857C789.595 115.172 789.308 115.509 789.141 115.866L787.71 115.355C787.965 114.759 788.306 114.294 788.732 113.962C789.163 113.625 789.631 113.391 790.138 113.259C790.65 113.122 791.153 113.054 791.647 113.054C791.962 113.054 792.325 113.092 792.734 113.169C793.147 113.241 793.545 113.393 793.929 113.623C794.317 113.853 794.638 114.2 794.894 114.665C795.15 115.129 795.278 115.751 795.278 116.531V123H793.769V121.67H793.692C793.59 121.884 793.42 122.112 793.181 122.354C792.942 122.597 792.625 122.804 792.229 122.974C791.832 123.145 791.349 123.23 790.778 123.23ZM791.008 121.875C791.604 121.875 792.107 121.758 792.516 121.523C792.93 121.289 793.241 120.987 793.45 120.616C793.663 120.245 793.769 119.855 793.769 119.446V118.065C793.705 118.142 793.565 118.212 793.347 118.276C793.134 118.336 792.887 118.389 792.606 118.436C792.329 118.479 792.058 118.517 791.794 118.551C791.534 118.581 791.323 118.607 791.161 118.628C790.769 118.679 790.403 118.762 790.062 118.877C789.725 118.988 789.452 119.156 789.244 119.382C789.039 119.604 788.937 119.906 788.937 120.29C788.937 120.814 789.131 121.21 789.518 121.479C789.911 121.743 790.407 121.875 791.008 121.875ZM802.301 113.182V114.46H797.213V113.182H802.301ZM798.696 110.83H800.204V120.188C800.204 120.614 800.266 120.933 800.39 121.146C800.518 121.355 800.68 121.496 800.876 121.568C801.076 121.636 801.287 121.67 801.508 121.67C801.675 121.67 801.811 121.662 801.917 121.645C802.024 121.624 802.109 121.607 802.173 121.594L802.48 122.949C802.378 122.987 802.235 123.026 802.052 123.064C801.868 123.107 801.636 123.128 801.355 123.128C800.929 123.128 800.511 123.036 800.102 122.853C799.697 122.67 799.361 122.391 799.092 122.016C798.828 121.641 798.696 121.168 798.696 120.597V110.83ZM804.57 123V113.182H806.079V123H804.57ZM805.337 111.545C805.043 111.545 804.79 111.445 804.577 111.245C804.368 111.045 804.263 110.804 804.263 110.523C804.263 110.241 804.368 110.001 804.577 109.8C804.79 109.6 805.043 109.5 805.337 109.5C805.631 109.5 805.883 109.6 806.091 109.8C806.305 110.001 806.411 110.241 806.411 110.523C806.411 110.804 806.305 111.045 806.091 111.245C805.883 111.445 805.631 111.545 805.337 111.545ZM812.83 123.205C811.944 123.205 811.166 122.994 810.497 122.572C809.832 122.15 809.312 121.56 808.938 120.801C808.567 120.043 808.381 119.156 808.381 118.142C808.381 117.119 808.567 116.227 808.938 115.464C809.312 114.701 809.832 114.109 810.497 113.687C811.166 113.265 811.944 113.054 812.83 113.054C813.717 113.054 814.492 113.265 815.157 113.687C815.826 114.109 816.346 114.701 816.717 115.464C817.092 116.227 817.279 117.119 817.279 118.142C817.279 119.156 817.092 120.043 816.717 120.801C816.346 121.56 815.826 122.15 815.157 122.572C814.492 122.994 813.717 123.205 812.83 123.205ZM812.83 121.849C813.504 121.849 814.058 121.677 814.492 121.332C814.927 120.987 815.249 120.533 815.457 119.97C815.666 119.408 815.771 118.798 815.771 118.142C815.771 117.486 815.666 116.874 815.457 116.308C815.249 115.741 814.927 115.283 814.492 114.933C814.058 114.584 813.504 114.409 812.83 114.409C812.157 114.409 811.603 114.584 811.168 114.933C810.734 115.283 810.412 115.741 810.203 116.308C809.994 116.874 809.89 117.486 809.89 118.142C809.89 118.798 809.994 119.408 810.203 119.97C810.412 120.533 810.734 120.987 811.168 121.332C811.603 121.677 812.157 121.849 812.83 121.849ZM821.09 117.094V123H819.582V113.182H821.039V114.716H821.167C821.397 114.217 821.747 113.817 822.215 113.514C822.684 113.207 823.289 113.054 824.031 113.054C824.695 113.054 825.277 113.19 825.776 113.463C826.274 113.732 826.662 114.141 826.939 114.69C827.216 115.236 827.355 115.926 827.355 116.761V123H825.846V116.864C825.846 116.092 825.646 115.491 825.245 115.061C824.845 114.626 824.295 114.409 823.596 114.409C823.115 114.409 822.684 114.513 822.305 114.722C821.93 114.931 821.634 115.236 821.416 115.636C821.199 116.037 821.09 116.523 821.09 117.094ZM838.063 123.23C837.441 123.23 836.876 123.113 836.369 122.879C835.862 122.64 835.459 122.297 835.161 121.849C834.863 121.398 834.713 120.852 834.713 120.213C834.713 119.651 834.824 119.195 835.046 118.845C835.267 118.491 835.564 118.214 835.934 118.014C836.305 117.814 836.714 117.665 837.162 117.567C837.613 117.464 838.067 117.384 838.523 117.324C839.12 117.247 839.603 117.19 839.974 117.151C840.349 117.109 840.622 117.038 840.792 116.94C840.967 116.842 841.054 116.672 841.054 116.429V116.378C841.054 115.747 840.882 115.257 840.537 114.908C840.196 114.558 839.678 114.384 838.983 114.384C838.263 114.384 837.699 114.541 837.289 114.857C836.88 115.172 836.593 115.509 836.426 115.866L834.995 115.355C835.25 114.759 835.591 114.294 836.017 113.962C836.448 113.625 836.917 113.391 837.424 113.259C837.935 113.122 838.438 113.054 838.932 113.054C839.248 113.054 839.61 113.092 840.019 113.169C840.432 113.241 840.831 113.393 841.214 113.623C841.602 113.853 841.924 114.2 842.179 114.665C842.435 115.129 842.563 115.751 842.563 116.531V123H841.054V121.67H840.978C840.875 121.884 840.705 122.112 840.466 122.354C840.228 122.597 839.91 122.804 839.514 122.974C839.118 123.145 838.634 123.23 838.063 123.23ZM838.293 121.875C838.89 121.875 839.392 121.758 839.801 121.523C840.215 121.289 840.526 120.987 840.735 120.616C840.948 120.245 841.054 119.855 841.054 119.446V118.065C840.99 118.142 840.85 118.212 840.632 118.276C840.419 118.336 840.172 118.389 839.891 118.436C839.614 118.479 839.343 118.517 839.079 118.551C838.819 118.581 838.608 118.607 838.446 118.628C838.054 118.679 837.688 118.762 837.347 118.877C837.01 118.988 836.738 119.156 836.529 119.382C836.324 119.604 836.222 119.906 836.222 120.29C836.222 120.814 836.416 121.21 836.804 121.479C837.196 121.743 837.692 121.875 838.293 121.875ZM846.825 117.094V123H845.316V113.182H846.774V114.716H846.901C847.132 114.217 847.481 113.817 847.95 113.514C848.419 113.207 849.024 113.054 849.765 113.054C850.43 113.054 851.012 113.19 851.51 113.463C852.009 113.732 852.396 114.141 852.673 114.69C852.95 115.236 853.089 115.926 853.089 116.761V123H851.58V116.864C851.58 116.092 851.38 115.491 850.98 115.061C850.579 114.626 850.029 114.409 849.33 114.409C848.849 114.409 848.419 114.513 848.039 114.722C847.664 114.931 847.368 115.236 847.151 115.636C846.933 116.037 846.825 116.523 846.825 117.094ZM859.553 123.205C858.735 123.205 858.012 122.998 857.386 122.585C856.76 122.167 856.27 121.579 855.916 120.82C855.562 120.058 855.385 119.156 855.385 118.116C855.385 117.085 855.562 116.19 855.916 115.432C856.27 114.673 856.762 114.087 857.392 113.674C858.023 113.261 858.752 113.054 859.578 113.054C860.218 113.054 860.723 113.161 861.093 113.374C861.468 113.582 861.754 113.821 861.95 114.089C862.15 114.354 862.306 114.571 862.417 114.741H862.544V109.909H864.053V123H862.596V121.491H862.417C862.306 121.67 862.148 121.896 861.944 122.169C861.739 122.437 861.447 122.678 861.068 122.891C860.689 123.1 860.184 123.205 859.553 123.205ZM859.757 121.849C860.363 121.849 860.874 121.692 861.292 121.376C861.709 121.057 862.027 120.616 862.244 120.053C862.461 119.487 862.57 118.832 862.57 118.091C862.57 117.358 862.463 116.717 862.25 116.167C862.037 115.613 861.722 115.183 861.304 114.876C860.887 114.565 860.371 114.409 859.757 114.409C859.118 114.409 858.586 114.573 858.159 114.901C857.738 115.225 857.42 115.666 857.207 116.224C856.998 116.778 856.894 117.401 856.894 118.091C856.894 118.79 857 119.425 857.213 119.996C857.431 120.562 857.75 121.014 858.172 121.351C858.598 121.683 859.127 121.849 859.757 121.849ZM874.977 123.23C874.355 123.23 873.79 123.113 873.283 122.879C872.776 122.64 872.373 122.297 872.075 121.849C871.777 121.398 871.627 120.852 871.627 120.213C871.627 119.651 871.738 119.195 871.96 118.845C872.181 118.491 872.478 118.214 872.848 118.014C873.219 117.814 873.628 117.665 874.076 117.567C874.527 117.464 874.981 117.384 875.437 117.324C876.034 117.247 876.517 117.19 876.888 117.151C877.263 117.109 877.536 117.038 877.706 116.94C877.881 116.842 877.968 116.672 877.968 116.429V116.378C877.968 115.747 877.796 115.257 877.451 114.908C877.11 114.558 876.592 114.384 875.897 114.384C875.177 114.384 874.613 114.541 874.203 114.857C873.794 115.172 873.507 115.509 873.341 115.866L871.909 115.355C872.164 114.759 872.505 114.294 872.931 113.962C873.362 113.625 873.831 113.391 874.338 113.259C874.849 113.122 875.352 113.054 875.846 113.054C876.162 113.054 876.524 113.092 876.933 113.169C877.346 113.241 877.745 113.393 878.128 113.623C878.516 113.853 878.838 114.2 879.093 114.665C879.349 115.129 879.477 115.751 879.477 116.531V123H877.968V121.67H877.892C877.789 121.884 877.619 122.112 877.38 122.354C877.142 122.597 876.824 122.804 876.428 122.974C876.032 123.145 875.548 123.23 874.977 123.23ZM875.207 121.875C875.804 121.875 876.306 121.758 876.716 121.523C877.129 121.289 877.44 120.987 877.649 120.616C877.862 120.245 877.968 119.855 877.968 119.446V118.065C877.904 118.142 877.764 118.212 877.547 118.276C877.333 118.336 877.086 118.389 876.805 118.436C876.528 118.479 876.257 118.517 875.993 118.551C875.733 118.581 875.522 118.607 875.36 118.628C874.968 118.679 874.602 118.762 874.261 118.877C873.924 118.988 873.652 119.156 873.443 119.382C873.238 119.604 873.136 119.906 873.136 120.29C873.136 120.814 873.33 121.21 873.718 121.479C874.11 121.743 874.606 121.875 875.207 121.875ZM882.23 126.682V113.182H883.688V114.741H883.867C883.977 114.571 884.131 114.354 884.327 114.089C884.527 113.821 884.813 113.582 885.183 113.374C885.558 113.161 886.066 113.054 886.705 113.054C887.531 113.054 888.26 113.261 888.891 113.674C889.521 114.087 890.014 114.673 890.367 115.432C890.721 116.19 890.898 117.085 890.898 118.116C890.898 119.156 890.721 120.058 890.367 120.82C890.014 121.579 889.524 122.167 888.897 122.585C888.271 122.998 887.548 123.205 886.73 123.205C886.1 123.205 885.595 123.1 885.215 122.891C884.836 122.678 884.544 122.437 884.34 122.169C884.135 121.896 883.977 121.67 883.867 121.491H883.739V126.682H882.23ZM883.713 118.091C883.713 118.832 883.822 119.487 884.039 120.053C884.257 120.616 884.574 121.057 884.992 121.376C885.409 121.692 885.921 121.849 886.526 121.849C887.156 121.849 887.683 121.683 888.105 121.351C888.531 121.014 888.85 120.562 889.063 119.996C889.281 119.425 889.389 118.79 889.389 118.091C889.389 117.401 889.283 116.778 889.07 116.224C888.861 115.666 888.544 115.225 888.117 114.901C887.695 114.573 887.165 114.409 886.526 114.409C885.912 114.409 885.396 114.565 884.979 114.876C884.561 115.183 884.246 115.613 884.033 116.167C883.82 116.717 883.713 117.358 883.713 118.091ZM893.199 126.682V113.182H894.656V114.741H894.835C894.946 114.571 895.1 114.354 895.296 114.089C895.496 113.821 895.781 113.582 896.152 113.374C896.527 113.161 897.034 113.054 897.673 113.054C898.5 113.054 899.229 113.261 899.86 113.674C900.49 114.087 900.982 114.673 901.336 115.432C901.69 116.19 901.867 117.085 901.867 118.116C901.867 119.156 901.69 120.058 901.336 120.82C900.982 121.579 900.492 122.167 899.866 122.585C899.24 122.998 898.517 123.205 897.699 123.205C897.068 123.205 896.563 123.1 896.184 122.891C895.805 122.678 895.513 122.437 895.308 122.169C895.104 121.896 894.946 121.67 894.835 121.491H894.708V126.682H893.199ZM894.682 118.091C894.682 118.832 894.791 119.487 895.008 120.053C895.225 120.616 895.543 121.057 895.96 121.376C896.378 121.692 896.889 121.849 897.494 121.849C898.125 121.849 898.651 121.683 899.073 121.351C899.499 121.014 899.819 120.562 900.032 119.996C900.249 119.425 900.358 118.79 900.358 118.091C900.358 117.401 900.252 116.778 900.039 116.224C899.83 115.666 899.512 115.225 899.086 114.901C898.664 114.573 898.134 114.409 897.494 114.409C896.881 114.409 896.365 114.565 895.948 114.876C895.53 115.183 895.215 115.613 895.002 116.167C894.789 116.717 894.682 117.358 894.682 118.091ZM905.676 109.909V123H904.168V109.909H905.676ZM908.439 123V113.182H909.948V123H908.439ZM909.206 111.545C908.912 111.545 908.659 111.445 908.446 111.245C908.237 111.045 908.132 110.804 908.132 110.523C908.132 110.241 908.237 110.001 908.446 109.8C908.659 109.6 908.912 109.5 909.206 109.5C909.5 109.5 909.752 109.6 909.961 109.8C910.174 110.001 910.28 110.241 910.28 110.523C910.28 110.804 910.174 111.045 909.961 111.245C909.752 111.445 909.5 111.545 909.206 111.545ZM916.699 123.205C915.779 123.205 914.986 122.987 914.322 122.553C913.657 122.118 913.145 121.519 912.787 120.756C912.43 119.994 912.251 119.122 912.251 118.142C912.251 117.145 912.434 116.265 912.8 115.502C913.171 114.735 913.687 114.136 914.347 113.706C915.012 113.271 915.787 113.054 916.674 113.054C917.364 113.054 917.986 113.182 918.54 113.438C919.094 113.693 919.548 114.051 919.902 114.511C920.256 114.972 920.475 115.509 920.56 116.122H919.052C918.937 115.675 918.681 115.278 918.285 114.933C917.893 114.584 917.364 114.409 916.699 114.409C916.111 114.409 915.596 114.562 915.153 114.869C914.714 115.172 914.371 115.6 914.123 116.154C913.881 116.704 913.759 117.349 913.759 118.091C913.759 118.849 913.878 119.51 914.117 120.072C914.36 120.635 914.701 121.072 915.14 121.383C915.583 121.694 916.103 121.849 916.699 121.849C917.091 121.849 917.447 121.781 917.767 121.645C918.086 121.509 918.357 121.312 918.579 121.057C918.8 120.801 918.958 120.494 919.052 120.136H920.56C920.475 120.716 920.264 121.238 919.927 121.702C919.595 122.163 919.154 122.529 918.604 122.802C918.059 123.07 917.424 123.205 916.699 123.205ZM925.655 123.23C925.032 123.23 924.468 123.113 923.961 122.879C923.454 122.64 923.051 122.297 922.753 121.849C922.454 121.398 922.305 120.852 922.305 120.213C922.305 119.651 922.416 119.195 922.638 118.845C922.859 118.491 923.155 118.214 923.526 118.014C923.897 117.814 924.306 117.665 924.753 117.567C925.205 117.464 925.659 117.384 926.115 117.324C926.711 117.247 927.195 117.19 927.566 117.151C927.941 117.109 928.214 117.038 928.384 116.94C928.559 116.842 928.646 116.672 928.646 116.429V116.378C928.646 115.747 928.474 115.257 928.128 114.908C927.787 114.558 927.27 114.384 926.575 114.384C925.855 114.384 925.29 114.541 924.881 114.857C924.472 115.172 924.184 115.509 924.018 115.866L922.586 115.355C922.842 114.759 923.183 114.294 923.609 113.962C924.04 113.625 924.508 113.391 925.015 113.259C925.527 113.122 926.03 113.054 926.524 113.054C926.839 113.054 927.202 113.092 927.611 113.169C928.024 113.241 928.422 113.393 928.806 113.623C929.194 113.853 929.515 114.2 929.771 114.665C930.027 115.129 930.155 115.751 930.155 116.531V123H928.646V121.67H928.569C928.467 121.884 928.297 122.112 928.058 122.354C927.819 122.597 927.502 122.804 927.106 122.974C926.709 123.145 926.226 123.23 925.655 123.23ZM925.885 121.875C926.481 121.875 926.984 121.758 927.393 121.523C927.807 121.289 928.118 120.987 928.327 120.616C928.54 120.245 928.646 119.855 928.646 119.446V118.065C928.582 118.142 928.442 118.212 928.224 118.276C928.011 118.336 927.764 118.389 927.483 118.436C927.206 118.479 926.935 118.517 926.671 118.551C926.411 118.581 926.2 118.607 926.038 118.628C925.646 118.679 925.28 118.762 924.939 118.877C924.602 118.988 924.329 119.156 924.121 119.382C923.916 119.604 923.814 119.906 923.814 120.29C923.814 120.814 924.008 121.21 924.395 121.479C924.787 121.743 925.284 121.875 925.885 121.875ZM937.178 113.182V114.46H932.09V113.182H937.178ZM933.573 110.83H935.081V120.188C935.081 120.614 935.143 120.933 935.267 121.146C935.395 121.355 935.556 121.496 935.752 121.568C935.953 121.636 936.164 121.67 936.385 121.67C936.551 121.67 936.688 121.662 936.794 121.645C936.901 121.624 936.986 121.607 937.05 121.594L937.357 122.949C937.255 122.987 937.112 123.026 936.929 123.064C936.745 123.107 936.513 123.128 936.232 123.128C935.806 123.128 935.388 123.036 934.979 122.853C934.574 122.67 934.238 122.391 933.969 122.016C933.705 121.641 933.573 121.168 933.573 120.597V110.83ZM939.447 123V113.182H940.956V123H939.447ZM940.214 111.545C939.92 111.545 939.667 111.445 939.453 111.245C939.245 111.045 939.14 110.804 939.14 110.523C939.14 110.241 939.245 110.001 939.453 109.8C939.667 109.6 939.92 109.5 940.214 109.5C940.508 109.5 940.76 109.6 940.968 109.8C941.181 110.001 941.288 110.241 941.288 110.523C941.288 110.804 941.181 111.045 940.968 111.245C940.76 111.445 940.508 111.545 940.214 111.545ZM947.707 123.205C946.821 123.205 946.043 122.994 945.374 122.572C944.709 122.15 944.189 121.56 943.814 120.801C943.444 120.043 943.258 119.156 943.258 118.142C943.258 117.119 943.444 116.227 943.814 115.464C944.189 114.701 944.709 114.109 945.374 113.687C946.043 113.265 946.821 113.054 947.707 113.054C948.594 113.054 949.369 113.265 950.034 113.687C950.703 114.109 951.223 114.701 951.594 115.464C951.969 116.227 952.156 117.119 952.156 118.142C952.156 119.156 951.969 120.043 951.594 120.801C951.223 121.56 950.703 122.15 950.034 122.572C949.369 122.994 948.594 123.205 947.707 123.205ZM947.707 121.849C948.381 121.849 948.934 121.677 949.369 121.332C949.804 120.987 950.126 120.533 950.334 119.97C950.543 119.408 950.648 118.798 950.648 118.142C950.648 117.486 950.543 116.874 950.334 116.308C950.126 115.741 949.804 115.283 949.369 114.933C948.934 114.584 948.381 114.409 947.707 114.409C947.034 114.409 946.48 114.584 946.045 114.933C945.611 115.283 945.289 115.741 945.08 116.308C944.871 116.874 944.767 117.486 944.767 118.142C944.767 118.798 944.871 119.408 945.08 119.97C945.289 120.533 945.611 120.987 946.045 121.332C946.48 121.677 947.034 121.849 947.707 121.849ZM955.967 117.094V123H954.459V113.182H955.916V114.716H956.044C956.274 114.217 956.624 113.817 957.092 113.514C957.561 113.207 958.166 113.054 958.908 113.054C959.572 113.054 960.154 113.19 960.653 113.463C961.151 113.732 961.539 114.141 961.816 114.69C962.093 115.236 962.232 115.926 962.232 116.761V123H960.723V116.864C960.723 116.092 960.523 115.491 960.122 115.061C959.722 114.626 959.172 114.409 958.473 114.409C957.991 114.409 957.561 114.513 957.182 114.722C956.807 114.931 956.511 115.236 956.293 115.636C956.076 116.037 955.967 116.523 955.967 117.094Z" fill="#212721"/>
<path d="M537.259 19V17.5682L541.689 12.9787C542.162 12.4801 542.552 12.0433 542.859 11.6683C543.17 11.2891 543.402 10.929 543.555 10.5881C543.709 10.2472 543.786 9.88494 543.786 9.50142C543.786 9.06676 543.683 8.69176 543.479 8.37642C543.274 8.05682 542.995 7.81179 542.641 7.64134C542.288 7.46662 541.889 7.37926 541.446 7.37926C540.977 7.37926 540.568 7.47514 540.219 7.6669C539.869 7.85866 539.601 8.12926 539.413 8.47869C539.226 8.82812 539.132 9.23722 539.132 9.70597H537.246C537.246 8.90909 537.43 8.21236 537.796 7.61577C538.163 7.01918 538.665 6.55682 539.305 6.22869C539.944 5.89631 540.67 5.73011 541.484 5.73011C542.307 5.73011 543.031 5.89418 543.658 6.2223C544.288 6.54616 544.781 6.98935 545.134 7.55185C545.488 8.11009 545.665 8.74077 545.665 9.44389C545.665 9.92969 545.573 10.4048 545.39 10.8693C545.211 11.3338 544.898 11.8516 544.45 12.4226C544.003 12.9893 543.381 13.6776 542.584 14.4872L539.982 17.2102V17.3061H545.876V19H537.259ZM554.109 11.6236V13.2855H548.305V11.6236H554.109ZM563.949 9.34801C563.881 8.7429 563.6 8.27415 563.105 7.94176C562.611 7.60511 561.989 7.43679 561.239 7.43679C560.702 7.43679 560.238 7.52202 559.846 7.69247C559.453 7.85866 559.149 8.08878 558.931 8.38281C558.718 8.67258 558.612 9.00284 558.612 9.37358C558.612 9.68466 558.684 9.95312 558.829 10.179C558.978 10.4048 559.172 10.5945 559.411 10.7479C559.654 10.897 559.914 11.0227 560.191 11.125C560.468 11.223 560.734 11.304 560.99 11.3679L562.268 11.7003C562.686 11.8026 563.114 11.9411 563.553 12.1158C563.992 12.2905 564.399 12.5206 564.774 12.8061C565.149 13.0916 565.451 13.4453 565.681 13.8672C565.916 14.2891 566.033 14.794 566.033 15.3821C566.033 16.1236 565.841 16.782 565.458 17.3572C565.078 17.9325 564.527 18.3864 563.802 18.7188C563.082 19.0511 562.211 19.2173 561.188 19.2173C560.208 19.2173 559.36 19.0618 558.644 18.7507C557.928 18.4396 557.368 17.9986 556.963 17.4276C556.558 16.8523 556.334 16.1705 556.292 15.3821H558.273C558.311 15.8551 558.465 16.2493 558.733 16.5646C559.006 16.8757 559.353 17.108 559.775 17.2614C560.201 17.4105 560.668 17.4851 561.175 17.4851C561.733 17.4851 562.23 17.3977 562.664 17.223C563.103 17.044 563.449 16.7969 563.7 16.4815C563.951 16.1619 564.077 15.7891 564.077 15.3629C564.077 14.9751 563.966 14.6577 563.745 14.4105C563.527 14.1634 563.231 13.9588 562.856 13.7969C562.485 13.6349 562.066 13.4922 561.597 13.3686L560.05 12.9467C559.002 12.6612 558.171 12.2415 557.557 11.6875C556.948 11.1335 556.643 10.4006 556.643 9.48864C556.643 8.73437 556.848 8.07599 557.257 7.51349C557.666 6.95099 558.22 6.5142 558.919 6.20312C559.618 5.88778 560.406 5.73011 561.284 5.73011C562.17 5.73011 562.952 5.88565 563.63 6.19673C564.311 6.50781 564.848 6.93608 565.24 7.48153C565.632 8.02273 565.837 8.64489 565.854 9.34801H563.949ZM572.823 9.18182V10.7159H567.46V9.18182H572.823ZM568.898 6.82955H570.809V16.1172C570.809 16.4879 570.865 16.767 570.976 16.9545C571.086 17.1378 571.229 17.2635 571.404 17.3317C571.583 17.3956 571.777 17.4276 571.986 17.4276C572.139 17.4276 572.273 17.4169 572.388 17.3956C572.503 17.3743 572.593 17.3572 572.657 17.3445L573.002 18.9233C572.891 18.9659 572.733 19.0085 572.529 19.0511C572.324 19.098 572.069 19.1236 571.762 19.1278C571.259 19.1364 570.79 19.0469 570.356 18.8594C569.921 18.6719 569.569 18.3821 569.301 17.9901C569.032 17.598 568.898 17.1058 568.898 16.5135V6.82955ZM579.063 19.1982C578.096 19.1982 577.263 18.9915 576.564 18.5781C575.869 18.1605 575.332 17.5746 574.953 16.8203C574.578 16.0618 574.391 15.1733 574.391 14.1548C574.391 13.1491 574.578 12.2628 574.953 11.4957C575.332 10.7287 575.861 10.13 576.538 9.69957C577.22 9.26918 578.017 9.05398 578.929 9.05398C579.483 9.05398 580.02 9.1456 580.54 9.32884C581.06 9.51207 581.526 9.79972 581.94 10.1918C582.353 10.5838 582.679 11.093 582.918 11.7195C583.156 12.3416 583.276 13.098 583.276 13.9886V14.6662H575.471V13.2344H581.403C581.403 12.7315 581.3 12.2862 581.096 11.8984C580.891 11.5064 580.604 11.1974 580.233 10.9716C579.866 10.7457 579.436 10.6328 578.942 10.6328C578.405 10.6328 577.936 10.7649 577.536 11.0291C577.139 11.2891 576.832 11.63 576.615 12.0518C576.402 12.4695 576.295 12.9233 576.295 13.4134V14.532C576.295 15.1882 576.411 15.7464 576.641 16.2067C576.875 16.6669 577.201 17.0185 577.619 17.2614C578.036 17.5 578.524 17.6193 579.082 17.6193C579.445 17.6193 579.775 17.5682 580.073 17.4659C580.371 17.3594 580.629 17.2017 580.847 16.9929C581.064 16.7841 581.23 16.5263 581.345 16.2195L583.154 16.5455C583.009 17.0781 582.749 17.5447 582.374 17.9453C582.004 18.3416 581.537 18.6506 580.974 18.8722C580.416 19.0895 579.779 19.1982 579.063 19.1982ZM585.396 22.6818V9.18182H587.263V10.7734H587.422C587.533 10.5689 587.693 10.3324 587.902 10.0639C588.111 9.79545 588.4 9.56108 588.771 9.3608C589.142 9.15625 589.632 9.05398 590.241 9.05398C591.034 9.05398 591.741 9.25426 592.363 9.65483C592.986 10.0554 593.474 10.6328 593.827 11.3871C594.185 12.1413 594.364 13.049 594.364 14.1101C594.364 15.1712 594.187 16.081 593.834 16.8395C593.48 17.5937 592.994 18.1754 592.376 18.5845C591.758 18.9893 591.053 19.1918 590.26 19.1918C589.664 19.1918 589.176 19.0916 588.797 18.8913C588.422 18.6911 588.128 18.4567 587.915 18.1882C587.702 17.9197 587.537 17.6811 587.422 17.4723H587.307V22.6818H585.396ZM587.269 14.0909C587.269 14.7812 587.369 15.3864 587.569 15.9062C587.77 16.4261 588.059 16.8331 588.439 17.1271C588.818 17.4169 589.282 17.5618 589.832 17.5618C590.403 17.5618 590.881 17.4105 591.264 17.108C591.648 16.8011 591.937 16.3857 592.133 15.8615C592.334 15.3374 592.434 14.7472 592.434 14.0909C592.434 13.4432 592.336 12.8615 592.14 12.3459C591.948 11.8303 591.658 11.4233 591.27 11.125C590.887 10.8267 590.407 10.6776 589.832 10.6776C589.278 10.6776 588.809 10.8203 588.426 11.1058C588.047 11.3913 587.759 11.7898 587.563 12.3011C587.367 12.8125 587.269 13.4091 587.269 14.0909Z" fill="#212721"/>
<path d="M824.817 19.179C823.939 19.179 823.155 19.0277 822.464 18.7251C821.778 18.4226 821.235 18.0028 820.835 17.4659C820.438 16.9247 820.225 16.2983 820.195 15.5866H822.202C822.228 15.9744 822.358 16.3111 822.592 16.5966C822.831 16.8778 823.142 17.0952 823.526 17.2486C823.909 17.402 824.335 17.4787 824.804 17.4787C825.32 17.4787 825.776 17.3892 826.172 17.2102C826.572 17.0312 826.886 16.782 827.112 16.4624C827.337 16.1385 827.45 15.7656 827.45 15.3438C827.45 14.9048 827.337 14.5192 827.112 14.1868C826.89 13.8501 826.564 13.5859 826.134 13.3942C825.707 13.2024 825.192 13.1065 824.587 13.1065H823.481V11.4957H824.587C825.072 11.4957 825.499 11.4084 825.865 11.2337C826.236 11.0589 826.526 10.8161 826.734 10.505C826.943 10.1896 827.048 9.82102 827.048 9.39915C827.048 8.99432 826.956 8.64276 826.773 8.34446C826.594 8.0419 826.338 7.8054 826.006 7.63494C825.678 7.46449 825.29 7.37926 824.842 7.37926C824.416 7.37926 824.018 7.4581 823.647 7.61577C823.281 7.76918 822.982 7.99077 822.752 8.28054C822.522 8.56605 822.398 8.90909 822.381 9.30966H820.47C820.491 8.60227 820.7 7.98011 821.097 7.44318C821.497 6.90625 822.026 6.48651 822.682 6.18395C823.338 5.88139 824.067 5.73011 824.868 5.73011C825.707 5.73011 826.432 5.89418 827.041 6.2223C827.655 6.54616 828.128 6.97869 828.46 7.51989C828.797 8.06108 828.963 8.65341 828.959 9.29688C828.963 10.0298 828.759 10.652 828.345 11.1634C827.936 11.6747 827.391 12.0178 826.709 12.1925V12.2947C827.578 12.4268 828.251 12.772 828.729 13.3303C829.21 13.8885 829.449 14.581 829.445 15.4077C829.449 16.1278 829.249 16.7734 828.844 17.3445C828.443 17.9155 827.896 18.3651 827.201 18.6932C826.506 19.017 825.712 19.179 824.817 19.179ZM837.671 11.6236V13.2855H831.867V11.6236H837.671ZM847.512 9.34801C847.444 8.7429 847.162 8.27415 846.668 7.94176C846.174 7.60511 845.551 7.43679 844.801 7.43679C844.265 7.43679 843.8 7.52202 843.408 7.69247C843.016 7.85866 842.711 8.08878 842.494 8.38281C842.281 8.67258 842.174 9.00284 842.174 9.37358C842.174 9.68466 842.247 9.95312 842.392 10.179C842.541 10.4048 842.735 10.5945 842.973 10.7479C843.216 10.897 843.476 11.0227 843.753 11.125C844.03 11.223 844.297 11.304 844.552 11.3679L845.831 11.7003C846.248 11.8026 846.676 11.9411 847.115 12.1158C847.554 12.2905 847.961 12.5206 848.336 12.8061C848.711 13.0916 849.014 13.4453 849.244 13.8672C849.478 14.2891 849.596 14.794 849.596 15.3821C849.596 16.1236 849.404 16.782 849.02 17.3572C848.641 17.9325 848.089 18.3864 847.365 18.7188C846.645 19.0511 845.773 19.2173 844.75 19.2173C843.77 19.2173 842.922 19.0618 842.206 18.7507C841.49 18.4396 840.93 17.9986 840.525 17.4276C840.12 16.8523 839.897 16.1705 839.854 15.3821H841.836C841.874 15.8551 842.027 16.2493 842.296 16.5646C842.569 16.8757 842.916 17.108 843.338 17.2614C843.764 17.4105 844.23 17.4851 844.738 17.4851C845.296 17.4851 845.792 17.3977 846.227 17.223C846.666 17.044 847.011 16.7969 847.262 16.4815C847.514 16.1619 847.64 15.7891 847.64 15.3629C847.64 14.9751 847.529 14.6577 847.307 14.4105C847.09 14.1634 846.794 13.9588 846.419 13.7969C846.048 13.6349 845.628 13.4922 845.159 13.3686L843.613 12.9467C842.564 12.6612 841.733 12.2415 841.12 11.6875C840.51 11.1335 840.206 10.4006 840.206 9.48864C840.206 8.73437 840.41 8.07599 840.819 7.51349C841.228 6.95099 841.782 6.5142 842.481 6.20312C843.18 5.88778 843.968 5.73011 844.846 5.73011C845.733 5.73011 846.515 5.88565 847.192 6.19673C847.874 6.50781 848.411 6.93608 848.803 7.48153C849.195 8.02273 849.4 8.64489 849.417 9.34801H847.512ZM856.385 9.18182V10.7159H851.023V9.18182H856.385ZM852.461 6.82955H854.372V16.1172C854.372 16.4879 854.427 16.767 854.538 16.9545C854.649 17.1378 854.792 17.2635 854.966 17.3317C855.145 17.3956 855.339 17.4276 855.548 17.4276C855.702 17.4276 855.836 17.4169 855.951 17.3956C856.066 17.3743 856.155 17.3572 856.219 17.3445L856.564 18.9233C856.454 18.9659 856.296 19.0085 856.091 19.0511C855.887 19.098 855.631 19.1236 855.324 19.1278C854.822 19.1364 854.353 19.0469 853.918 18.8594C853.483 18.6719 853.132 18.3821 852.863 17.9901C852.595 17.598 852.461 17.1058 852.461 16.5135V6.82955ZM862.626 19.1982C861.658 19.1982 860.825 18.9915 860.126 18.5781C859.432 18.1605 858.895 17.5746 858.516 16.8203C858.141 16.0618 857.953 15.1733 857.953 14.1548C857.953 13.1491 858.141 12.2628 858.516 11.4957C858.895 10.7287 859.423 10.13 860.101 9.69957C860.783 9.26918 861.58 9.05398 862.491 9.05398C863.045 9.05398 863.582 9.1456 864.102 9.32884C864.622 9.51207 865.089 9.79972 865.502 10.1918C865.915 10.5838 866.241 11.093 866.48 11.7195C866.719 12.3416 866.838 13.098 866.838 13.9886V14.6662H859.033V13.2344H864.965C864.965 12.7315 864.863 12.2862 864.658 11.8984C864.454 11.5064 864.166 11.1974 863.795 10.9716C863.429 10.7457 862.999 10.6328 862.504 10.6328C861.967 10.6328 861.499 10.7649 861.098 11.0291C860.702 11.2891 860.395 11.63 860.178 12.0518C859.964 12.4695 859.858 12.9233 859.858 13.4134V14.532C859.858 15.1882 859.973 15.7464 860.203 16.2067C860.438 16.6669 860.763 17.0185 861.181 17.2614C861.599 17.5 862.087 17.6193 862.645 17.6193C863.007 17.6193 863.337 17.5682 863.636 17.4659C863.934 17.3594 864.192 17.2017 864.409 16.9929C864.626 16.7841 864.793 16.5263 864.908 16.2195L866.717 16.5455C866.572 17.0781 866.312 17.5447 865.937 17.9453C865.566 18.3416 865.099 18.6506 864.537 18.8722C863.979 19.0895 863.342 19.1982 862.626 19.1982ZM868.959 22.6818V9.18182H870.825V10.7734H870.985C871.096 10.5689 871.256 10.3324 871.464 10.0639C871.673 9.79545 871.963 9.56108 872.334 9.3608C872.704 9.15625 873.194 9.05398 873.804 9.05398C874.596 9.05398 875.304 9.25426 875.926 9.65483C876.548 10.0554 877.036 10.6328 877.39 11.3871C877.748 12.1413 877.927 13.049 877.927 14.1101C877.927 15.1712 877.75 16.081 877.396 16.8395C877.042 17.5937 876.557 18.1754 875.939 18.5845C875.321 18.9893 874.616 19.1918 873.823 19.1918C873.226 19.1918 872.738 19.0916 872.359 18.8913C871.984 18.6911 871.69 18.4567 871.477 18.1882C871.264 17.9197 871.1 17.6811 870.985 17.4723H870.87V22.6818H868.959ZM870.831 14.0909C870.831 14.7812 870.932 15.3864 871.132 15.9062C871.332 16.4261 871.622 16.8331 872.001 17.1271C872.381 17.4169 872.845 17.5618 873.395 17.5618C873.966 17.5618 874.443 17.4105 874.827 17.108C875.21 16.8011 875.5 16.3857 875.696 15.8615C875.896 15.3374 875.996 14.7472 875.996 14.0909C875.996 13.4432 875.898 12.8615 875.702 12.3459C875.51 11.8303 875.221 11.4233 874.833 11.125C874.449 10.8267 873.97 10.6776 873.395 10.6776C872.841 10.6776 872.372 10.8203 871.988 11.1058C871.609 11.3913 871.322 11.7898 871.126 12.3011C870.93 12.8125 870.831 13.4091 870.831 14.0909Z" fill="#212721"/>
<circle cx="16" cy="64" r="16" fill="#2D6CB1"/>
<circle cx="295" cy="64" r="28" fill="#2D6CB1"/>
<path d="M296.982 55.6757C296.592 55.2852 295.959 55.2852 295.568 55.6757C295.178 56.0662 295.178 56.6994 295.568 57.0899L296.982 55.6757ZM303.893 64.0001L304.6 64.7073C304.787 64.5197 304.893 64.2654 304.893 64.0001C304.893 63.7349 304.787 63.4806 304.6 63.293L303.893 64.0001ZM295.568 70.9104C295.178 71.3009 295.178 71.9341 295.568 72.3246C295.959 72.7151 296.592 72.7151 296.982 72.3246L295.568 70.9104ZM286.141 63.0001C285.588 63.0001 285.141 63.4479 285.141 64.0001C285.141 64.5524 285.588 65.0001 286.141 65.0001V63.0001ZM303.87 65.0001C304.422 65.0001 304.87 64.5524 304.87 64.0001C304.87 63.4479 304.422 63.0001 303.87 63.0001V65.0001ZM295.568 57.0899L303.186 64.7073L304.6 63.293L296.982 55.6757L295.568 57.0899ZM303.186 63.293L295.568 70.9104L296.982 72.3246L304.6 64.7073L303.186 63.293ZM286.141 65.0001H303.87V63.0001H286.141V65.0001Z" fill="white"/>
<circle cx="566" cy="64" r="16" fill="#F2F2F2"/>
<circle cx="849" cy="64" r="16" fill="#F2F2F2"/>
</svg>
