<svg width="1074" height="128" viewBox="0 0 1074 128" fill="none" xmlns="http://www.w3.org/2000/svg">
<rect x="299" y="59" width="775" height="10" fill="#F2F2F2"/>
<rect x="14" y="59" width="541" height="10" fill="#2D6CB1"/>
<path d="M272.226 5.90909V19H270.244V7.89062H270.168L267.036 9.93608V8.04403L270.302 5.90909H272.226ZM281.577 11.6236V13.2855H275.773V11.6236H281.577ZM291.418 9.34801C291.35 8.7429 291.069 8.27415 290.574 7.94176C290.08 7.60511 289.458 7.43679 288.708 7.43679C288.171 7.43679 287.706 7.52202 287.314 7.69247C286.922 7.85866 286.618 8.08878 286.4 8.38281C286.187 8.67258 286.081 9.00284 286.081 9.37358C286.081 9.68466 286.153 9.95312 286.298 10.179C286.447 10.4048 286.641 10.5945 286.88 10.7479C287.123 10.897 287.382 11.0227 287.659 11.125C287.936 11.223 288.203 11.304 288.458 11.3679L289.737 11.7003C290.154 11.8026 290.583 11.9411 291.022 12.1158C291.461 12.2905 291.868 12.5206 292.243 12.8061C292.618 13.0916 292.92 13.4453 293.15 13.8672C293.385 14.2891 293.502 14.794 293.502 15.3821C293.502 16.1236 293.31 16.782 292.926 17.3572C292.547 17.9325 291.995 18.3864 291.271 18.7188C290.551 19.0511 289.679 19.2173 288.657 19.2173C287.676 19.2173 286.828 19.0618 286.113 18.7507C285.397 18.4396 284.836 17.9986 284.431 17.4276C284.027 16.8523 283.803 16.1705 283.76 15.3821H285.742C285.78 15.8551 285.934 16.2493 286.202 16.5646C286.475 16.8757 286.822 17.108 287.244 17.2614C287.67 17.4105 288.137 17.4851 288.644 17.4851C289.202 17.4851 289.699 17.3977 290.133 17.223C290.572 17.044 290.917 16.7969 291.169 16.4815C291.42 16.1619 291.546 15.7891 291.546 15.3629C291.546 14.9751 291.435 14.6577 291.213 14.4105C290.996 14.1634 290.7 13.9588 290.325 13.7969C289.954 13.6349 289.534 13.4922 289.066 13.3686L287.519 12.9467C286.471 12.6612 285.64 12.2415 285.026 11.6875C284.417 11.1335 284.112 10.4006 284.112 9.48864C284.112 8.73437 284.316 8.07599 284.725 7.51349C285.135 6.95099 285.689 6.5142 286.387 6.20312C287.086 5.88778 287.875 5.73011 288.752 5.73011C289.639 5.73011 290.421 5.88565 291.098 6.19673C291.78 6.50781 292.317 6.93608 292.709 7.48153C293.101 8.02273 293.306 8.64489 293.323 9.34801H291.418ZM300.292 9.18182V10.7159H294.929V9.18182H300.292ZM296.367 6.82955H298.278V16.1172C298.278 16.4879 298.334 16.767 298.444 16.9545C298.555 17.1378 298.698 17.2635 298.873 17.3317C299.052 17.3956 299.246 17.4276 299.454 17.4276C299.608 17.4276 299.742 17.4169 299.857 17.3956C299.972 17.3743 300.062 17.3572 300.126 17.3445L300.471 18.9233C300.36 18.9659 300.202 19.0085 299.998 19.0511C299.793 19.098 299.537 19.1236 299.231 19.1278C298.728 19.1364 298.259 19.0469 297.824 18.8594C297.39 18.6719 297.038 18.3821 296.77 17.9901C296.501 17.598 296.367 17.1058 296.367 16.5135V6.82955ZM306.532 19.1982C305.565 19.1982 304.732 18.9915 304.033 18.5781C303.338 18.1605 302.801 17.5746 302.422 16.8203C302.047 16.0618 301.859 15.1733 301.859 14.1548C301.859 13.1491 302.047 12.2628 302.422 11.4957C302.801 10.7287 303.33 10.13 304.007 9.69957C304.689 9.26918 305.486 9.05398 306.398 9.05398C306.952 9.05398 307.489 9.1456 308.009 9.32884C308.528 9.51207 308.995 9.79972 309.408 10.1918C309.822 10.5838 310.148 11.093 310.386 11.7195C310.625 12.3416 310.744 13.098 310.744 13.9886V14.6662H302.94V13.2344H308.871C308.871 12.7315 308.769 12.2862 308.565 11.8984C308.36 11.5064 308.072 11.1974 307.702 10.9716C307.335 10.7457 306.905 10.6328 306.411 10.6328C305.874 10.6328 305.405 10.7649 305.004 11.0291C304.608 11.2891 304.301 11.63 304.084 12.0518C303.871 12.4695 303.764 12.9233 303.764 13.4134V14.532C303.764 15.1882 303.879 15.7464 304.109 16.2067C304.344 16.6669 304.67 17.0185 305.087 17.2614C305.505 17.5 305.993 17.6193 306.551 17.6193C306.913 17.6193 307.244 17.5682 307.542 17.4659C307.84 17.3594 308.098 17.2017 308.315 16.9929C308.533 16.7841 308.699 16.5263 308.814 16.2195L310.623 16.5455C310.478 17.0781 310.218 17.5447 309.843 17.9453C309.472 18.3416 309.006 18.6506 308.443 18.8722C307.885 19.0895 307.248 19.1982 306.532 19.1982ZM312.865 22.6818V9.18182H314.731V10.7734H314.891C315.002 10.5689 315.162 10.3324 315.371 10.0639C315.579 9.79545 315.869 9.56108 316.24 9.3608C316.611 9.15625 317.101 9.05398 317.71 9.05398C318.503 9.05398 319.21 9.25426 319.832 9.65483C320.454 10.0554 320.942 10.6328 321.296 11.3871C321.654 12.1413 321.833 13.049 321.833 14.1101C321.833 15.1712 321.656 16.081 321.302 16.8395C320.949 17.5937 320.463 18.1754 319.845 18.5845C319.227 18.9893 318.522 19.1918 317.729 19.1918C317.133 19.1918 316.645 19.0916 316.265 18.8913C315.89 18.6911 315.596 18.4567 315.383 18.1882C315.17 17.9197 315.006 17.6811 314.891 17.4723H314.776V22.6818H312.865ZM314.738 14.0909C314.738 14.7812 314.838 15.3864 315.038 15.9062C315.238 16.4261 315.528 16.8331 315.907 17.1271C316.287 17.4169 316.751 17.5618 317.301 17.5618C317.872 17.5618 318.349 17.4105 318.733 17.108C319.116 16.8011 319.406 16.3857 319.602 15.8615C319.802 15.3374 319.903 14.7472 319.903 14.0909C319.903 13.4432 319.805 12.8615 319.608 12.3459C319.417 11.8303 319.127 11.4233 318.739 11.125C318.356 10.8267 317.876 10.6776 317.301 10.6776C316.747 10.6776 316.278 10.8203 315.895 11.1058C315.515 11.3913 315.228 11.7898 315.032 12.3011C314.836 12.8125 314.738 13.4091 314.738 14.0909Z" fill="#212721"/>
<path d="M208.435 123V108.455H213.889C215.007 108.455 215.944 108.663 216.702 109.08C217.464 109.496 218.039 110.069 218.428 110.798C218.821 111.523 219.017 112.347 219.017 113.27C219.017 114.203 218.821 115.031 218.428 115.756C218.035 116.48 217.455 117.051 216.688 117.467C215.92 117.879 214.976 118.085 213.854 118.085H210.239V115.919H213.499C214.152 115.919 214.687 115.805 215.104 115.578C215.52 115.351 215.828 115.038 216.027 114.641C216.231 114.243 216.332 113.786 216.332 113.27C216.332 112.754 216.231 112.299 216.027 111.906C215.828 111.513 215.518 111.208 215.097 110.99C214.68 110.768 214.143 110.656 213.484 110.656H211.07V123H208.435ZM221.192 123V112.091H223.685V113.909H223.799C223.998 113.279 224.338 112.794 224.821 112.453C225.309 112.107 225.865 111.935 226.49 111.935C226.632 111.935 226.791 111.942 226.966 111.956C227.146 111.965 227.295 111.982 227.414 112.006V114.371C227.305 114.333 227.132 114.3 226.895 114.271C226.663 114.238 226.438 114.222 226.221 114.222C225.752 114.222 225.33 114.323 224.956 114.527C224.587 114.726 224.296 115.003 224.083 115.358C223.87 115.713 223.763 116.123 223.763 116.587V123H221.192ZM233.431 123.213C232.366 123.213 231.442 122.979 230.661 122.51C229.88 122.041 229.274 121.385 228.843 120.543C228.417 119.7 228.204 118.715 228.204 117.588C228.204 116.461 228.417 115.474 228.843 114.626C229.274 113.779 229.88 113.121 230.661 112.652C231.442 112.183 232.366 111.949 233.431 111.949C234.496 111.949 235.42 112.183 236.201 112.652C236.982 113.121 237.586 113.779 238.012 114.626C238.443 115.474 238.658 116.461 238.658 117.588C238.658 118.715 238.443 119.7 238.012 120.543C237.586 121.385 236.982 122.041 236.201 122.51C235.42 122.979 234.496 123.213 233.431 123.213ZM233.445 121.153C234.023 121.153 234.506 120.995 234.894 120.678C235.282 120.356 235.571 119.925 235.761 119.385C235.955 118.845 236.052 118.244 236.052 117.581C236.052 116.913 235.955 116.31 235.761 115.77C235.571 115.225 235.282 114.792 234.894 114.47C234.506 114.148 234.023 113.987 233.445 113.987C232.853 113.987 232.361 114.148 231.968 114.47C231.58 114.792 231.289 115.225 231.094 115.77C230.905 116.31 230.81 116.913 230.81 117.581C230.81 118.244 230.905 118.845 231.094 119.385C231.289 119.925 231.58 120.356 231.968 120.678C232.361 120.995 232.853 121.153 233.445 121.153ZM245.585 127.318C244.662 127.318 243.868 127.193 243.206 126.942C242.543 126.696 242.01 126.364 241.608 125.947C241.205 125.531 240.926 125.069 240.77 124.562L243.085 124.001C243.189 124.214 243.341 124.425 243.539 124.634C243.738 124.847 244.006 125.022 244.342 125.159C244.683 125.301 245.111 125.372 245.627 125.372C246.357 125.372 246.96 125.195 247.439 124.839C247.917 124.489 248.156 123.911 248.156 123.107V121.04H248.028C247.895 121.305 247.701 121.577 247.446 121.857C247.195 122.136 246.861 122.37 246.444 122.56C246.032 122.749 245.514 122.844 244.889 122.844C244.051 122.844 243.291 122.647 242.609 122.254C241.932 121.857 241.392 121.265 240.99 120.479C240.592 119.688 240.393 118.698 240.393 117.51C240.393 116.312 240.592 115.301 240.99 114.477C241.392 113.649 241.934 113.021 242.616 112.595C243.298 112.164 244.058 111.949 244.896 111.949C245.535 111.949 246.061 112.058 246.473 112.276C246.889 112.489 247.221 112.747 247.467 113.05C247.713 113.348 247.9 113.63 248.028 113.895H248.17V112.091H250.706V123.178C250.706 124.11 250.483 124.882 250.038 125.493C249.593 126.104 248.984 126.561 248.213 126.864C247.441 127.167 246.565 127.318 245.585 127.318ZM245.606 120.827C246.151 120.827 246.615 120.694 246.998 120.429C247.382 120.164 247.673 119.783 247.872 119.286C248.071 118.788 248.17 118.192 248.17 117.496C248.17 116.809 248.071 116.208 247.872 115.692C247.678 115.176 247.389 114.776 247.005 114.491C246.627 114.203 246.16 114.058 245.606 114.058C245.033 114.058 244.555 114.207 244.172 114.506C243.788 114.804 243.499 115.214 243.305 115.734C243.111 116.25 243.014 116.838 243.014 117.496C243.014 118.163 243.111 118.748 243.305 119.25C243.504 119.747 243.795 120.135 244.179 120.415C244.567 120.689 245.043 120.827 245.606 120.827ZM253.341 123V112.091H255.833V113.909H255.947C256.146 113.279 256.487 112.794 256.97 112.453C257.458 112.107 258.014 111.935 258.639 111.935C258.781 111.935 258.94 111.942 259.115 111.956C259.295 111.965 259.444 111.982 259.562 112.006V114.371C259.453 114.333 259.28 114.3 259.044 114.271C258.812 114.238 258.587 114.222 258.369 114.222C257.9 114.222 257.479 114.323 257.105 114.527C256.735 114.726 256.444 115.003 256.231 115.358C256.018 115.713 255.912 116.123 255.912 116.587V123H253.341ZM264.214 123.22C263.523 123.22 262.9 123.097 262.346 122.851C261.797 122.6 261.361 122.231 261.039 121.743C260.722 121.255 260.564 120.654 260.564 119.939C260.564 119.323 260.677 118.814 260.904 118.412C261.132 118.009 261.442 117.688 261.835 117.446C262.228 117.205 262.671 117.022 263.163 116.899C263.66 116.771 264.174 116.679 264.704 116.622C265.343 116.556 265.862 116.497 266.26 116.445C266.657 116.388 266.946 116.303 267.126 116.189C267.311 116.071 267.403 115.888 267.403 115.642V115.599C267.403 115.064 267.244 114.65 266.927 114.357C266.61 114.063 266.153 113.916 265.556 113.916C264.927 113.916 264.427 114.054 264.058 114.328C263.693 114.603 263.447 114.927 263.319 115.301L260.919 114.96C261.108 114.297 261.421 113.743 261.856 113.298C262.292 112.848 262.824 112.512 263.454 112.29C264.084 112.062 264.78 111.949 265.542 111.949C266.068 111.949 266.591 112.01 267.112 112.134C267.633 112.257 268.109 112.46 268.539 112.744C268.97 113.024 269.316 113.405 269.576 113.888C269.842 114.371 269.974 114.974 269.974 115.699V123H267.502V121.501H267.417C267.261 121.804 267.041 122.089 266.757 122.354C266.477 122.614 266.125 122.825 265.699 122.986C265.277 123.142 264.782 123.22 264.214 123.22ZM264.882 121.331C265.398 121.331 265.845 121.229 266.224 121.026C266.603 120.817 266.894 120.543 267.098 120.202C267.306 119.861 267.41 119.489 267.41 119.087V117.801C267.33 117.867 267.192 117.929 266.998 117.986C266.809 118.043 266.596 118.092 266.359 118.135C266.122 118.178 265.888 118.215 265.656 118.249C265.424 118.282 265.223 118.31 265.052 118.334C264.669 118.386 264.325 118.471 264.022 118.589C263.719 118.708 263.48 118.874 263.305 119.087C263.13 119.295 263.042 119.565 263.042 119.896C263.042 120.37 263.215 120.727 263.561 120.969C263.906 121.21 264.347 121.331 264.882 121.331ZM272.559 123V112.091H275.017V113.945H275.145C275.372 113.32 275.748 112.832 276.274 112.482C276.799 112.126 277.427 111.949 278.156 111.949C278.895 111.949 279.517 112.129 280.024 112.489C280.535 112.844 280.895 113.329 281.103 113.945H281.217C281.458 113.339 281.866 112.856 282.439 112.496C283.016 112.131 283.7 111.949 284.491 111.949C285.495 111.949 286.314 112.266 286.949 112.901C287.583 113.535 287.9 114.461 287.9 115.678V123H285.322V116.075C285.322 115.398 285.142 114.903 284.782 114.591C284.422 114.274 283.982 114.115 283.461 114.115C282.841 114.115 282.356 114.309 282.005 114.697C281.66 115.081 281.487 115.58 281.487 116.196V123H278.966V115.969C278.966 115.405 278.795 114.955 278.454 114.619C278.118 114.283 277.678 114.115 277.133 114.115C276.764 114.115 276.428 114.21 276.125 114.399C275.822 114.584 275.58 114.847 275.4 115.188C275.22 115.524 275.13 115.917 275.13 116.366V123H272.559ZM304.092 114.974L301.748 115.23C301.682 114.993 301.566 114.771 301.4 114.562C301.239 114.354 301.021 114.186 300.746 114.058C300.472 113.93 300.136 113.866 299.738 113.866C299.203 113.866 298.753 113.982 298.388 114.214C298.029 114.446 297.851 114.747 297.856 115.116C297.851 115.434 297.967 115.692 298.204 115.891C298.445 116.089 298.843 116.253 299.397 116.381L301.258 116.778C302.29 117.001 303.057 117.354 303.559 117.837C304.066 118.32 304.321 118.952 304.326 119.733C304.321 120.42 304.12 121.026 303.722 121.551C303.329 122.072 302.782 122.479 302.082 122.773C301.381 123.066 300.576 123.213 299.667 123.213C298.332 123.213 297.257 122.934 296.442 122.375C295.628 121.812 295.143 121.028 294.987 120.024L297.494 119.783C297.607 120.275 297.849 120.647 298.218 120.898C298.587 121.149 299.068 121.274 299.66 121.274C300.271 121.274 300.761 121.149 301.13 120.898C301.504 120.647 301.691 120.337 301.691 119.967C301.691 119.655 301.57 119.397 301.329 119.193C301.092 118.99 300.723 118.833 300.221 118.724L298.36 118.334C297.314 118.116 296.54 117.749 296.038 117.233C295.536 116.712 295.287 116.054 295.292 115.259C295.287 114.586 295.469 114.004 295.839 113.511C296.213 113.014 296.731 112.631 297.394 112.361C298.062 112.086 298.831 111.949 299.702 111.949C300.981 111.949 301.987 112.221 302.721 112.766C303.46 113.31 303.916 114.046 304.092 114.974ZM311.276 123.213C310.182 123.213 309.237 122.986 308.442 122.531C307.651 122.072 307.043 121.423 306.616 120.585C306.19 119.742 305.977 118.75 305.977 117.609C305.977 116.487 306.19 115.502 306.616 114.655C307.047 113.803 307.649 113.14 308.42 112.666C309.192 112.188 310.099 111.949 311.141 111.949C311.813 111.949 312.447 112.058 313.044 112.276C313.645 112.489 314.176 112.82 314.635 113.27C315.099 113.72 315.464 114.293 315.729 114.989C315.994 115.68 316.126 116.504 316.126 117.46V118.249H307.185V116.516H313.662C313.657 116.023 313.551 115.585 313.342 115.202C313.134 114.813 312.843 114.508 312.469 114.286C312.099 114.063 311.669 113.952 311.176 113.952C310.651 113.952 310.189 114.08 309.791 114.335C309.393 114.586 309.083 114.918 308.861 115.33C308.643 115.737 308.532 116.184 308.527 116.672V118.185C308.527 118.819 308.643 119.364 308.875 119.818C309.107 120.268 309.431 120.614 309.848 120.855C310.265 121.092 310.752 121.21 311.311 121.21C311.685 121.21 312.024 121.158 312.327 121.054C312.63 120.945 312.893 120.786 313.115 120.578C313.338 120.37 313.506 120.112 313.619 119.804L316.02 120.074C315.868 120.708 315.58 121.262 315.153 121.736C314.732 122.205 314.192 122.569 313.534 122.83C312.876 123.085 312.123 123.213 311.276 123.213ZM320.873 108.455V123H318.301V108.455H320.873ZM328.346 123.213C327.252 123.213 326.308 122.986 325.512 122.531C324.721 122.072 324.113 121.423 323.687 120.585C323.261 119.742 323.048 118.75 323.048 117.609C323.048 116.487 323.261 115.502 323.687 114.655C324.118 113.803 324.719 113.14 325.491 112.666C326.263 112.188 327.169 111.949 328.211 111.949C328.883 111.949 329.518 112.058 330.114 112.276C330.716 112.489 331.246 112.82 331.705 113.27C332.169 113.72 332.534 114.293 332.799 114.989C333.064 115.68 333.197 116.504 333.197 117.46V118.249H324.255V116.516H330.732C330.728 116.023 330.621 115.585 330.413 115.202C330.204 114.813 329.913 114.508 329.539 114.286C329.17 114.063 328.739 113.952 328.246 113.952C327.721 113.952 327.259 114.08 326.862 114.335C326.464 114.586 326.154 114.918 325.931 115.33C325.713 115.737 325.602 116.184 325.597 116.672V118.185C325.597 118.819 325.713 119.364 325.945 119.818C326.177 120.268 326.502 120.614 326.918 120.855C327.335 121.092 327.823 121.21 328.381 121.21C328.755 121.21 329.094 121.158 329.397 121.054C329.7 120.945 329.963 120.786 330.185 120.578C330.408 120.37 330.576 120.112 330.69 119.804L333.09 120.074C332.939 120.708 332.65 121.262 332.224 121.736C331.802 122.205 331.263 122.569 330.604 122.83C329.946 123.085 329.193 123.213 328.346 123.213ZM340.13 123.213C339.041 123.213 338.106 122.974 337.325 122.496C336.548 122.018 335.949 121.357 335.528 120.514C335.111 119.667 334.903 118.691 334.903 117.588C334.903 116.48 335.116 115.502 335.542 114.655C335.968 113.803 336.57 113.14 337.346 112.666C338.127 112.188 339.051 111.949 340.116 111.949C341.002 111.949 341.785 112.112 342.467 112.439C343.154 112.761 343.7 113.218 344.108 113.81C344.515 114.397 344.747 115.083 344.804 115.869H342.346C342.247 115.344 342.01 114.906 341.636 114.555C341.267 114.2 340.772 114.023 340.152 114.023C339.626 114.023 339.164 114.165 338.767 114.449C338.369 114.728 338.059 115.131 337.836 115.656C337.618 116.182 337.51 116.812 337.51 117.545C337.51 118.289 337.618 118.928 337.836 119.463C338.054 119.993 338.359 120.403 338.752 120.692C339.15 120.976 339.617 121.118 340.152 121.118C340.53 121.118 340.869 121.047 341.167 120.905C341.47 120.758 341.724 120.547 341.927 120.273C342.131 119.998 342.27 119.664 342.346 119.271H344.804C344.742 120.043 344.515 120.727 344.122 121.324C343.729 121.916 343.194 122.38 342.517 122.716C341.84 123.047 341.044 123.213 340.13 123.213ZM352.362 112.091V114.08H346.091V112.091H352.362ZM347.639 109.477H350.21V119.719C350.21 120.064 350.262 120.33 350.366 120.514C350.475 120.694 350.617 120.817 350.793 120.884C350.968 120.95 351.162 120.983 351.375 120.983C351.536 120.983 351.683 120.971 351.815 120.947C351.953 120.924 352.057 120.902 352.128 120.884L352.561 122.893C352.424 122.941 352.227 122.993 351.972 123.05C351.721 123.107 351.413 123.14 351.048 123.149C350.404 123.168 349.824 123.071 349.308 122.858C348.792 122.64 348.383 122.304 348.08 121.849C347.781 121.395 347.634 120.827 347.639 120.145V109.477ZM354.512 123V112.091H357.083V123H354.512ZM355.805 110.543C355.398 110.543 355.047 110.408 354.754 110.138C354.46 109.863 354.314 109.534 354.314 109.151C354.314 108.762 354.46 108.433 354.754 108.163C355.047 107.889 355.398 107.751 355.805 107.751C356.217 107.751 356.567 107.889 356.856 108.163C357.15 108.433 357.297 108.762 357.297 109.151C357.297 109.534 357.15 109.863 356.856 110.138C356.567 110.408 356.217 110.543 355.805 110.543ZM364.486 123.213C363.42 123.213 362.497 122.979 361.716 122.51C360.935 122.041 360.329 121.385 359.898 120.543C359.472 119.7 359.259 118.715 359.259 117.588C359.259 116.461 359.472 115.474 359.898 114.626C360.329 113.779 360.935 113.121 361.716 112.652C362.497 112.183 363.42 111.949 364.486 111.949C365.551 111.949 366.474 112.183 367.256 112.652C368.037 113.121 368.641 113.779 369.067 114.626C369.498 115.474 369.713 116.461 369.713 117.588C369.713 118.715 369.498 119.7 369.067 120.543C368.641 121.385 368.037 122.041 367.256 122.51C366.474 122.979 365.551 123.213 364.486 123.213ZM364.5 121.153C365.078 121.153 365.561 120.995 365.949 120.678C366.337 120.356 366.626 119.925 366.815 119.385C367.009 118.845 367.107 118.244 367.107 117.581C367.107 116.913 367.009 116.31 366.815 115.77C366.626 115.225 366.337 114.792 365.949 114.47C365.561 114.148 365.078 113.987 364.5 113.987C363.908 113.987 363.416 114.148 363.023 114.47C362.634 114.792 362.343 115.225 362.149 115.77C361.96 116.31 361.865 116.913 361.865 117.581C361.865 118.244 361.96 118.845 362.149 119.385C362.343 119.925 362.634 120.356 363.023 120.678C363.416 120.995 363.908 121.153 364.5 121.153ZM374.466 116.608V123H371.895V112.091H374.353V113.945H374.48C374.731 113.334 375.132 112.848 375.681 112.489C376.235 112.129 376.919 111.949 377.733 111.949C378.486 111.949 379.142 112.11 379.701 112.432C380.264 112.754 380.7 113.22 381.007 113.831C381.32 114.442 381.474 115.183 381.469 116.054V123H378.898V116.452C378.898 115.723 378.709 115.152 378.33 114.74C377.956 114.328 377.437 114.122 376.775 114.122C376.325 114.122 375.925 114.222 375.574 114.42C375.229 114.615 374.956 114.896 374.757 115.266C374.563 115.635 374.466 116.082 374.466 116.608Z" fill="#2D6CB1"/>
<path d="M468.604 108.455H471.239V117.957C471.239 118.999 470.992 119.915 470.5 120.706C470.012 121.497 469.326 122.115 468.44 122.56C467.555 123 466.52 123.22 465.337 123.22C464.148 123.22 463.111 123 462.226 122.56C461.34 122.115 460.654 121.497 460.166 120.706C459.679 119.915 459.435 118.999 459.435 117.957V108.455H462.07V117.737C462.07 118.343 462.202 118.883 462.467 119.357C462.737 119.83 463.116 120.202 463.604 120.472C464.091 120.737 464.669 120.869 465.337 120.869C466.004 120.869 466.582 120.737 467.07 120.472C467.562 120.202 467.941 119.83 468.206 119.357C468.471 118.883 468.604 118.343 468.604 117.737V108.455ZM473.989 127.091V112.091H476.517V113.895H476.667C476.799 113.63 476.986 113.348 477.228 113.05C477.469 112.747 477.796 112.489 478.208 112.276C478.62 112.058 479.145 111.949 479.784 111.949C480.627 111.949 481.387 112.164 482.064 112.595C482.746 113.021 483.286 113.653 483.684 114.491C484.086 115.325 484.287 116.348 484.287 117.56C484.287 118.758 484.091 119.776 483.698 120.614C483.305 121.452 482.77 122.091 482.093 122.531C481.416 122.972 480.649 123.192 479.792 123.192C479.167 123.192 478.648 123.088 478.236 122.879C477.824 122.671 477.493 122.42 477.242 122.126C476.996 121.828 476.804 121.546 476.667 121.281H476.56V127.091H473.989ZM476.51 117.545C476.51 118.251 476.61 118.869 476.809 119.399C477.012 119.929 477.303 120.344 477.682 120.642C478.066 120.936 478.53 121.082 479.074 121.082C479.642 121.082 480.118 120.931 480.502 120.628C480.885 120.32 481.174 119.901 481.368 119.371C481.567 118.836 481.667 118.227 481.667 117.545C481.667 116.868 481.569 116.267 481.375 115.741C481.181 115.216 480.892 114.804 480.509 114.506C480.125 114.207 479.647 114.058 479.074 114.058C478.525 114.058 478.059 114.203 477.675 114.491C477.292 114.78 477 115.185 476.801 115.706C476.607 116.227 476.51 116.84 476.51 117.545ZM489.06 108.455V123H486.489V108.455H489.06ZM496.462 123.213C495.397 123.213 494.474 122.979 493.692 122.51C492.911 122.041 492.305 121.385 491.874 120.543C491.448 119.7 491.235 118.715 491.235 117.588C491.235 116.461 491.448 115.474 491.874 114.626C492.305 113.779 492.911 113.121 493.692 112.652C494.474 112.183 495.397 111.949 496.462 111.949C497.528 111.949 498.451 112.183 499.232 112.652C500.013 113.121 500.617 113.779 501.043 114.626C501.474 115.474 501.69 116.461 501.69 117.588C501.69 118.715 501.474 119.7 501.043 120.543C500.617 121.385 500.013 122.041 499.232 122.51C498.451 122.979 497.528 123.213 496.462 123.213ZM496.477 121.153C497.054 121.153 497.537 120.995 497.925 120.678C498.314 120.356 498.603 119.925 498.792 119.385C498.986 118.845 499.083 118.244 499.083 117.581C499.083 116.913 498.986 116.31 498.792 115.77C498.603 115.225 498.314 114.792 497.925 114.47C497.537 114.148 497.054 113.987 496.477 113.987C495.885 113.987 495.392 114.148 494.999 114.47C494.611 114.792 494.32 115.225 494.126 115.77C493.936 116.31 493.842 116.913 493.842 117.581C493.842 118.244 493.936 118.845 494.126 119.385C494.32 119.925 494.611 120.356 494.999 120.678C495.392 120.995 495.885 121.153 496.477 121.153ZM507.011 123.22C506.32 123.22 505.697 123.097 505.143 122.851C504.594 122.6 504.158 122.231 503.836 121.743C503.519 121.255 503.36 120.654 503.36 119.939C503.36 119.323 503.474 118.814 503.701 118.412C503.929 118.009 504.239 117.688 504.632 117.446C505.025 117.205 505.467 117.022 505.96 116.899C506.457 116.771 506.971 116.679 507.501 116.622C508.14 116.556 508.659 116.497 509.056 116.445C509.454 116.388 509.743 116.303 509.923 116.189C510.108 116.071 510.2 115.888 510.2 115.642V115.599C510.2 115.064 510.041 114.65 509.724 114.357C509.407 114.063 508.95 113.916 508.353 113.916C507.724 113.916 507.224 114.054 506.855 114.328C506.49 114.603 506.244 114.927 506.116 115.301L503.716 114.96C503.905 114.297 504.217 113.743 504.653 113.298C505.089 112.848 505.621 112.512 506.251 112.29C506.881 112.062 507.577 111.949 508.339 111.949C508.865 111.949 509.388 112.01 509.909 112.134C510.43 112.257 510.905 112.46 511.336 112.744C511.767 113.024 512.113 113.405 512.373 113.888C512.638 114.371 512.771 114.974 512.771 115.699V123H510.299V121.501H510.214C510.058 121.804 509.838 122.089 509.554 122.354C509.274 122.614 508.922 122.825 508.495 122.986C508.074 123.142 507.579 123.22 507.011 123.22ZM507.679 121.331C508.195 121.331 508.642 121.229 509.021 121.026C509.4 120.817 509.691 120.543 509.895 120.202C510.103 119.861 510.207 119.489 510.207 119.087V117.801C510.127 117.867 509.989 117.929 509.795 117.986C509.606 118.043 509.393 118.092 509.156 118.135C508.919 118.178 508.685 118.215 508.453 118.249C508.221 118.282 508.02 118.31 507.849 118.334C507.466 118.386 507.122 118.471 506.819 118.589C506.516 118.708 506.277 118.874 506.102 119.087C505.927 119.295 505.839 119.565 505.839 119.896C505.839 120.37 506.012 120.727 506.358 120.969C506.703 121.21 507.144 121.331 507.679 121.331ZM519.404 123.192C518.547 123.192 517.78 122.972 517.103 122.531C516.426 122.091 515.891 121.452 515.498 120.614C515.105 119.776 514.909 118.758 514.909 117.56C514.909 116.348 515.108 115.325 515.505 114.491C515.908 113.653 516.45 113.021 517.132 112.595C517.814 112.164 518.574 111.949 519.412 111.949C520.051 111.949 520.576 112.058 520.988 112.276C521.4 112.489 521.727 112.747 521.968 113.05C522.21 113.348 522.397 113.63 522.529 113.895H522.636V108.455H525.214V123H522.686V121.281H522.529C522.397 121.546 522.205 121.828 521.954 122.126C521.703 122.42 521.372 122.671 520.96 122.879C520.548 123.088 520.029 123.192 519.404 123.192ZM520.122 121.082C520.666 121.082 521.13 120.936 521.514 120.642C521.897 120.344 522.189 119.929 522.387 119.399C522.586 118.869 522.686 118.251 522.686 117.545C522.686 116.84 522.586 116.227 522.387 115.706C522.193 115.185 521.904 114.78 521.521 114.491C521.142 114.203 520.676 114.058 520.122 114.058C519.549 114.058 519.071 114.207 518.687 114.506C518.304 114.804 518.015 115.216 517.821 115.741C517.627 116.267 517.529 116.868 517.529 117.545C517.529 118.227 517.627 118.836 517.821 119.371C518.02 119.901 518.311 120.32 518.694 120.628C519.083 120.931 519.558 121.082 520.122 121.082ZM527.954 123V112.091H530.525V123H527.954ZM529.246 110.543C528.839 110.543 528.489 110.408 528.195 110.138C527.902 109.863 527.755 109.534 527.755 109.151C527.755 108.762 527.902 108.433 528.195 108.163C528.489 107.889 528.839 107.751 529.246 107.751C529.658 107.751 530.009 107.889 530.298 108.163C530.591 108.433 530.738 108.762 530.738 109.151C530.738 109.534 530.591 109.863 530.298 110.138C530.009 110.408 529.658 110.543 529.246 110.543ZM535.74 116.608V123H533.169V112.091H535.626V113.945H535.754C536.005 113.334 536.405 112.848 536.954 112.489C537.508 112.129 538.192 111.949 539.007 111.949C539.76 111.949 540.415 112.11 540.974 112.432C541.538 112.754 541.973 113.22 542.281 113.831C542.593 114.442 542.747 115.183 542.743 116.054V123H540.172V116.452C540.172 115.723 539.982 115.152 539.603 114.74C539.229 114.328 538.711 114.122 538.048 114.122C537.598 114.122 537.198 114.222 536.848 114.42C536.502 114.615 536.23 114.896 536.031 115.266C535.837 115.635 535.74 116.082 535.74 116.608ZM550.1 127.318C549.177 127.318 548.384 127.193 547.721 126.942C547.058 126.696 546.526 126.364 546.123 125.947C545.721 125.531 545.441 125.069 545.285 124.562L547.6 124.001C547.705 124.214 547.856 124.425 548.055 124.634C548.254 124.847 548.521 125.022 548.858 125.159C549.199 125.301 549.627 125.372 550.143 125.372C550.872 125.372 551.476 125.195 551.954 124.839C552.432 124.489 552.672 123.911 552.672 123.107V121.04H552.544C552.411 121.305 552.217 121.577 551.961 121.857C551.71 122.136 551.377 122.37 550.96 122.56C550.548 122.749 550.029 122.844 549.404 122.844C548.566 122.844 547.806 122.647 547.125 122.254C546.448 121.857 545.908 121.265 545.505 120.479C545.108 119.688 544.909 118.698 544.909 117.51C544.909 116.312 545.108 115.301 545.505 114.477C545.908 113.649 546.45 113.021 547.132 112.595C547.814 112.164 548.574 111.949 549.412 111.949C550.051 111.949 550.576 112.058 550.988 112.276C551.405 112.489 551.736 112.747 551.983 113.05C552.229 113.348 552.416 113.63 552.544 113.895H552.686V112.091H555.221V123.178C555.221 124.11 554.999 124.882 554.554 125.493C554.109 126.104 553.5 126.561 552.728 126.864C551.957 127.167 551.081 127.318 550.1 127.318ZM550.122 120.827C550.666 120.827 551.13 120.694 551.514 120.429C551.897 120.164 552.189 119.783 552.387 119.286C552.586 118.788 552.686 118.192 552.686 117.496C552.686 116.809 552.586 116.208 552.387 115.692C552.193 115.176 551.904 114.776 551.521 114.491C551.142 114.203 550.676 114.058 550.122 114.058C549.549 114.058 549.071 114.207 548.687 114.506C548.304 114.804 548.015 115.214 547.821 115.734C547.627 116.25 547.529 116.838 547.529 117.496C547.529 118.163 547.627 118.748 547.821 119.25C548.02 119.747 548.311 120.135 548.694 120.415C549.083 120.689 549.558 120.827 550.122 120.827ZM567.86 123H562.931V108.455H567.959C569.403 108.455 570.644 108.746 571.681 109.328C572.722 109.906 573.523 110.737 574.081 111.821C574.64 112.905 574.919 114.203 574.919 115.713C574.919 117.228 574.638 118.53 574.074 119.619C573.516 120.708 572.708 121.544 571.652 122.126C570.601 122.709 569.337 123 567.86 123ZM565.566 120.72H567.732C568.745 120.72 569.59 120.536 570.267 120.166C570.944 119.792 571.453 119.236 571.794 118.497C572.135 117.754 572.306 116.826 572.306 115.713C572.306 114.6 572.135 113.677 571.794 112.943C571.453 112.205 570.949 111.653 570.282 111.288C569.619 110.919 568.795 110.734 567.81 110.734H565.566V120.72ZM582.068 123.213C581.002 123.213 580.079 122.979 579.298 122.51C578.517 122.041 577.911 121.385 577.48 120.543C577.054 119.7 576.841 118.715 576.841 117.588C576.841 116.461 577.054 115.474 577.48 114.626C577.911 113.779 578.517 113.121 579.298 112.652C580.079 112.183 581.002 111.949 582.068 111.949C583.133 111.949 584.056 112.183 584.838 112.652C585.619 113.121 586.223 113.779 586.649 114.626C587.08 115.474 587.295 116.461 587.295 117.588C587.295 118.715 587.08 119.7 586.649 120.543C586.223 121.385 585.619 122.041 584.838 122.51C584.056 122.979 583.133 123.213 582.068 123.213ZM582.082 121.153C582.66 121.153 583.143 120.995 583.531 120.678C583.919 120.356 584.208 119.925 584.397 119.385C584.592 118.845 584.689 118.244 584.689 117.581C584.689 116.913 584.592 116.31 584.397 115.77C584.208 115.225 583.919 114.792 583.531 114.47C583.143 114.148 582.66 113.987 582.082 113.987C581.49 113.987 580.998 114.148 580.605 114.47C580.217 114.792 579.925 115.225 579.731 115.77C579.542 116.31 579.447 116.913 579.447 117.581C579.447 118.244 579.542 118.845 579.731 119.385C579.925 119.925 580.217 120.356 580.605 120.678C580.998 120.995 581.49 121.153 582.082 121.153ZM594.236 123.213C593.147 123.213 592.212 122.974 591.43 122.496C590.654 122.018 590.055 121.357 589.634 120.514C589.217 119.667 589.009 118.691 589.009 117.588C589.009 116.48 589.222 115.502 589.648 114.655C590.074 113.803 590.675 113.14 591.452 112.666C592.233 112.188 593.156 111.949 594.222 111.949C595.107 111.949 595.891 112.112 596.572 112.439C597.259 112.761 597.806 113.218 598.213 113.81C598.62 114.397 598.852 115.083 598.909 115.869H596.452C596.352 115.344 596.116 114.906 595.741 114.555C595.372 114.2 594.877 114.023 594.257 114.023C593.732 114.023 593.27 114.165 592.872 114.449C592.474 114.728 592.164 115.131 591.942 115.656C591.724 116.182 591.615 116.812 591.615 117.545C591.615 118.289 591.724 118.928 591.942 119.463C592.16 119.993 592.465 120.403 592.858 120.692C593.256 120.976 593.722 121.118 594.257 121.118C594.636 121.118 594.974 121.047 595.273 120.905C595.576 120.758 595.829 120.547 596.033 120.273C596.236 119.998 596.376 119.664 596.452 119.271H598.909C598.848 120.043 598.62 120.727 598.227 121.324C597.834 121.916 597.299 122.38 596.622 122.716C595.945 123.047 595.15 123.213 594.236 123.213ZM607.973 118.412V112.091H610.544V123H608.051V121.061H607.938C607.692 121.672 607.287 122.171 606.723 122.56C606.165 122.948 605.476 123.142 604.657 123.142C603.942 123.142 603.31 122.983 602.76 122.666C602.216 122.344 601.79 121.878 601.482 121.267C601.174 120.652 601.02 119.908 601.02 119.037V112.091H603.591V118.639C603.591 119.33 603.781 119.88 604.159 120.287C604.538 120.694 605.035 120.898 605.651 120.898C606.03 120.898 606.397 120.805 606.752 120.621C607.107 120.436 607.398 120.161 607.625 119.797C607.857 119.428 607.973 118.966 607.973 118.412ZM613.188 123V112.091H615.646V113.945H615.773C616.001 113.32 616.377 112.832 616.903 112.482C617.428 112.126 618.056 111.949 618.785 111.949C619.523 111.949 620.146 112.129 620.653 112.489C621.164 112.844 621.524 113.329 621.732 113.945H621.846C622.087 113.339 622.495 112.856 623.067 112.496C623.645 112.131 624.329 111.949 625.12 111.949C626.124 111.949 626.943 112.266 627.577 112.901C628.212 113.535 628.529 114.461 628.529 115.678V123H625.951V116.075C625.951 115.398 625.771 114.903 625.411 114.591C625.051 114.274 624.611 114.115 624.09 114.115C623.47 114.115 622.985 114.309 622.634 114.697C622.289 115.081 622.116 115.58 622.116 116.196V123H619.594V115.969C619.594 115.405 619.424 114.955 619.083 114.619C618.747 114.283 618.307 114.115 617.762 114.115C617.393 114.115 617.057 114.21 616.754 114.399C616.451 114.584 616.209 114.847 616.029 115.188C615.849 115.524 615.759 115.917 615.759 116.366V123H613.188ZM635.967 123.213C634.873 123.213 633.929 122.986 633.133 122.531C632.342 122.072 631.734 121.423 631.308 120.585C630.882 119.742 630.669 118.75 630.669 117.609C630.669 116.487 630.882 115.502 631.308 114.655C631.739 113.803 632.34 113.14 633.112 112.666C633.884 112.188 634.79 111.949 635.832 111.949C636.504 111.949 637.139 112.058 637.735 112.276C638.337 112.489 638.867 112.82 639.326 113.27C639.79 113.72 640.155 114.293 640.42 114.989C640.685 115.68 640.818 116.504 640.818 117.46V118.249H631.876V116.516H638.353C638.349 116.023 638.242 115.585 638.034 115.202C637.825 114.813 637.534 114.508 637.16 114.286C636.791 114.063 636.36 113.952 635.868 113.952C635.342 113.952 634.88 114.08 634.483 114.335C634.085 114.586 633.775 114.918 633.552 115.33C633.334 115.737 633.223 116.184 633.218 116.672V118.185C633.218 118.819 633.334 119.364 633.566 119.818C633.798 120.268 634.123 120.614 634.539 120.855C634.956 121.092 635.444 121.21 636.002 121.21C636.377 121.21 636.715 121.158 637.018 121.054C637.321 120.945 637.584 120.786 637.806 120.578C638.029 120.37 638.197 120.112 638.311 119.804L640.711 120.074C640.56 120.708 640.271 121.262 639.845 121.736C639.423 122.205 638.884 122.569 638.225 122.83C637.567 123.085 636.815 123.213 635.967 123.213ZM645.564 116.608V123H642.993V112.091H645.45V113.945H645.578C645.829 113.334 646.229 112.848 646.778 112.489C647.332 112.129 648.017 111.949 648.831 111.949C649.584 111.949 650.24 112.11 650.798 112.432C651.362 112.754 651.797 113.22 652.105 113.831C652.418 114.442 652.571 115.183 652.567 116.054V123H649.996V116.452C649.996 115.723 649.806 115.152 649.428 114.74C649.054 114.328 648.535 114.122 647.872 114.122C647.422 114.122 647.022 114.222 646.672 114.42C646.326 114.615 646.054 114.896 645.855 115.266C645.661 115.635 645.564 116.082 645.564 116.608ZM660.628 112.091V114.08H654.357V112.091H660.628ZM655.905 109.477H658.476V119.719C658.476 120.064 658.528 120.33 658.632 120.514C658.741 120.694 658.883 120.817 659.058 120.884C659.233 120.95 659.428 120.983 659.641 120.983C659.802 120.983 659.948 120.971 660.081 120.947C660.218 120.924 660.322 120.902 660.393 120.884L660.827 122.893C660.689 122.941 660.493 122.993 660.237 123.05C659.986 123.107 659.679 123.14 659.314 123.149C658.67 123.168 658.09 123.071 657.574 122.858C657.058 122.64 656.648 122.304 656.345 121.849C656.047 121.395 655.9 120.827 655.905 120.145V109.477ZM671.244 114.974L668.9 115.23C668.834 114.993 668.718 114.771 668.552 114.562C668.391 114.354 668.173 114.186 667.899 114.058C667.624 113.93 667.288 113.866 666.89 113.866C666.355 113.866 665.905 113.982 665.541 114.214C665.181 114.446 665.003 114.747 665.008 115.116C665.003 115.434 665.119 115.692 665.356 115.891C665.598 116.089 665.995 116.253 666.549 116.381L668.41 116.778C669.442 117.001 670.209 117.354 670.711 117.837C671.218 118.32 671.474 118.952 671.478 119.733C671.474 120.42 671.272 121.026 670.875 121.551C670.482 122.072 669.935 122.479 669.234 122.773C668.533 123.066 667.728 123.213 666.819 123.213C665.484 123.213 664.409 122.934 663.595 122.375C662.78 121.812 662.295 121.028 662.139 120.024L664.646 119.783C664.76 120.275 665.001 120.647 665.37 120.898C665.74 121.149 666.22 121.274 666.812 121.274C667.423 121.274 667.913 121.149 668.282 120.898C668.656 120.647 668.843 120.337 668.843 119.967C668.843 119.655 668.723 119.397 668.481 119.193C668.244 118.99 667.875 118.833 667.373 118.724L665.512 118.334C664.466 118.116 663.692 117.749 663.19 117.233C662.688 116.712 662.44 116.054 662.444 115.259C662.44 114.586 662.622 114.004 662.991 113.511C663.365 113.014 663.884 112.631 664.547 112.361C665.214 112.086 665.984 111.949 666.855 111.949C668.133 111.949 669.139 112.221 669.873 112.766C670.612 113.31 671.069 114.046 671.244 114.974Z" fill="#2D6CB1"/>
<path d="M735.122 109.909L739.009 120.929H739.162L743.048 109.909H744.71L739.903 123H738.267L733.46 109.909H735.122ZM749.747 123.205C748.801 123.205 747.985 122.996 747.299 122.578C746.617 122.156 746.091 121.568 745.72 120.814C745.354 120.055 745.17 119.173 745.17 118.168C745.17 117.162 745.354 116.276 745.72 115.509C746.091 114.737 746.607 114.136 747.267 113.706C747.932 113.271 748.707 113.054 749.594 113.054C750.105 113.054 750.61 113.139 751.109 113.31C751.607 113.48 752.061 113.757 752.47 114.141C752.879 114.52 753.205 115.023 753.448 115.649C753.691 116.276 753.812 117.047 753.812 117.963V118.602H746.244V117.298H752.278C752.278 116.744 752.168 116.25 751.946 115.815C751.729 115.381 751.418 115.038 751.013 114.786C750.612 114.535 750.139 114.409 749.594 114.409C748.993 114.409 748.473 114.558 748.034 114.857C747.599 115.151 747.265 115.534 747.031 116.007C746.796 116.48 746.679 116.987 746.679 117.528V118.398C746.679 119.139 746.807 119.768 747.062 120.283C747.322 120.795 747.683 121.185 748.143 121.453C748.603 121.717 749.138 121.849 749.747 121.849C750.143 121.849 750.501 121.794 750.821 121.683C751.145 121.568 751.424 121.398 751.658 121.172C751.893 120.942 752.074 120.656 752.202 120.315L753.659 120.724C753.506 121.219 753.248 121.653 752.886 122.028C752.523 122.399 752.076 122.689 751.543 122.898C751.011 123.102 750.412 123.205 749.747 123.205ZM756.107 123V113.182H757.565V114.665H757.667C757.846 114.179 758.17 113.785 758.638 113.482C759.107 113.18 759.636 113.028 760.224 113.028C760.335 113.028 760.473 113.031 760.639 113.035C760.805 113.039 760.931 113.045 761.016 113.054V114.588C760.965 114.575 760.848 114.556 760.665 114.531C760.486 114.501 760.296 114.486 760.096 114.486C759.619 114.486 759.192 114.586 758.817 114.786C758.447 114.982 758.153 115.255 757.935 115.604C757.722 115.95 757.616 116.344 757.616 116.787V123H756.107ZM762.805 123V113.182H764.313V123H762.805ZM763.572 111.545C763.278 111.545 763.024 111.445 762.811 111.245C762.602 111.045 762.498 110.804 762.498 110.523C762.498 110.241 762.602 110.001 762.811 109.8C763.024 109.6 763.278 109.5 763.572 109.5C763.866 109.5 764.117 109.6 764.326 109.8C764.539 110.001 764.645 110.241 764.645 110.523C764.645 110.804 764.539 111.045 764.326 111.245C764.117 111.445 763.866 111.545 763.572 111.545ZM771.448 113.182V114.46H766.156V113.182H771.448ZM767.741 123V111.827C767.741 111.264 767.873 110.795 768.137 110.42C768.401 110.045 768.744 109.764 769.166 109.577C769.588 109.389 770.033 109.295 770.502 109.295C770.873 109.295 771.175 109.325 771.41 109.385C771.644 109.445 771.819 109.5 771.934 109.551L771.499 110.855C771.423 110.83 771.316 110.798 771.18 110.759C771.048 110.721 770.873 110.702 770.656 110.702C770.157 110.702 769.797 110.827 769.575 111.079C769.358 111.33 769.249 111.699 769.249 112.185V123H767.741ZM773.562 123V113.182H775.071V123H773.562ZM774.329 111.545C774.035 111.545 773.782 111.445 773.569 111.245C773.36 111.045 773.256 110.804 773.256 110.523C773.256 110.241 773.36 110.001 773.569 109.8C773.782 109.6 774.035 109.5 774.329 109.5C774.623 109.5 774.875 109.6 775.084 109.8C775.297 110.001 775.403 110.241 775.403 110.523C775.403 110.804 775.297 111.045 775.084 111.245C774.875 111.445 774.623 111.545 774.329 111.545ZM781.822 123.205C780.902 123.205 780.109 122.987 779.445 122.553C778.78 122.118 778.268 121.519 777.911 120.756C777.553 119.994 777.374 119.122 777.374 118.142C777.374 117.145 777.557 116.265 777.923 115.502C778.294 114.735 778.81 114.136 779.47 113.706C780.135 113.271 780.911 113.054 781.797 113.054C782.487 113.054 783.109 113.182 783.663 113.438C784.217 113.693 784.671 114.051 785.025 114.511C785.379 114.972 785.598 115.509 785.683 116.122H784.175C784.06 115.675 783.804 115.278 783.408 114.933C783.016 114.584 782.487 114.409 781.822 114.409C781.234 114.409 780.719 114.562 780.276 114.869C779.837 115.172 779.494 115.6 779.246 116.154C779.004 116.704 778.882 117.349 778.882 118.091C778.882 118.849 779.001 119.51 779.24 120.072C779.483 120.635 779.824 121.072 780.263 121.383C780.706 121.694 781.226 121.849 781.822 121.849C782.214 121.849 782.57 121.781 782.89 121.645C783.21 121.509 783.48 121.312 783.702 121.057C783.923 120.801 784.081 120.494 784.175 120.136H785.683C785.598 120.716 785.387 121.238 785.05 121.702C784.718 122.163 784.277 122.529 783.727 122.802C783.182 123.07 782.547 123.205 781.822 123.205ZM790.778 123.23C790.156 123.23 789.591 123.113 789.084 122.879C788.577 122.64 788.174 122.297 787.876 121.849C787.577 121.398 787.428 120.852 787.428 120.213C787.428 119.651 787.539 119.195 787.761 118.845C787.982 118.491 788.278 118.214 788.649 118.014C789.02 117.814 789.429 117.665 789.876 117.567C790.328 117.464 790.782 117.384 791.238 117.324C791.835 117.247 792.318 117.19 792.689 117.151C793.064 117.109 793.337 117.038 793.507 116.94C793.682 116.842 793.769 116.672 793.769 116.429V116.378C793.769 115.747 793.597 115.257 793.251 114.908C792.911 114.558 792.393 114.384 791.698 114.384C790.978 114.384 790.413 114.541 790.004 114.857C789.595 115.172 789.308 115.509 789.141 115.866L787.71 115.355C787.965 114.759 788.306 114.294 788.732 113.962C789.163 113.625 789.631 113.391 790.138 113.259C790.65 113.122 791.153 113.054 791.647 113.054C791.962 113.054 792.325 113.092 792.734 113.169C793.147 113.241 793.545 113.393 793.929 113.623C794.317 113.853 794.638 114.2 794.894 114.665C795.15 115.129 795.278 115.751 795.278 116.531V123H793.769V121.67H793.692C793.59 121.884 793.42 122.112 793.181 122.354C792.942 122.597 792.625 122.804 792.229 122.974C791.832 123.145 791.349 123.23 790.778 123.23ZM791.008 121.875C791.604 121.875 792.107 121.758 792.516 121.523C792.93 121.289 793.241 120.987 793.45 120.616C793.663 120.245 793.769 119.855 793.769 119.446V118.065C793.705 118.142 793.565 118.212 793.347 118.276C793.134 118.336 792.887 118.389 792.606 118.436C792.329 118.479 792.058 118.517 791.794 118.551C791.534 118.581 791.323 118.607 791.161 118.628C790.769 118.679 790.403 118.762 790.062 118.877C789.725 118.988 789.452 119.156 789.244 119.382C789.039 119.604 788.937 119.906 788.937 120.29C788.937 120.814 789.131 121.21 789.518 121.479C789.911 121.743 790.407 121.875 791.008 121.875ZM802.301 113.182V114.46H797.213V113.182H802.301ZM798.696 110.83H800.204V120.188C800.204 120.614 800.266 120.933 800.39 121.146C800.518 121.355 800.68 121.496 800.876 121.568C801.076 121.636 801.287 121.67 801.508 121.67C801.675 121.67 801.811 121.662 801.917 121.645C802.024 121.624 802.109 121.607 802.173 121.594L802.48 122.949C802.378 122.987 802.235 123.026 802.052 123.064C801.868 123.107 801.636 123.128 801.355 123.128C800.929 123.128 800.511 123.036 800.102 122.853C799.697 122.67 799.361 122.391 799.092 122.016C798.828 121.641 798.696 121.168 798.696 120.597V110.83ZM804.57 123V113.182H806.079V123H804.57ZM805.337 111.545C805.043 111.545 804.79 111.445 804.577 111.245C804.368 111.045 804.263 110.804 804.263 110.523C804.263 110.241 804.368 110.001 804.577 109.8C804.79 109.6 805.043 109.5 805.337 109.5C805.631 109.5 805.883 109.6 806.091 109.8C806.305 110.001 806.411 110.241 806.411 110.523C806.411 110.804 806.305 111.045 806.091 111.245C805.883 111.445 805.631 111.545 805.337 111.545ZM812.83 123.205C811.944 123.205 811.166 122.994 810.497 122.572C809.832 122.15 809.312 121.56 808.938 120.801C808.567 120.043 808.381 119.156 808.381 118.142C808.381 117.119 808.567 116.227 808.938 115.464C809.312 114.701 809.832 114.109 810.497 113.687C811.166 113.265 811.944 113.054 812.83 113.054C813.717 113.054 814.492 113.265 815.157 113.687C815.826 114.109 816.346 114.701 816.717 115.464C817.092 116.227 817.279 117.119 817.279 118.142C817.279 119.156 817.092 120.043 816.717 120.801C816.346 121.56 815.826 122.15 815.157 122.572C814.492 122.994 813.717 123.205 812.83 123.205ZM812.83 121.849C813.504 121.849 814.058 121.677 814.492 121.332C814.927 120.987 815.249 120.533 815.457 119.97C815.666 119.408 815.771 118.798 815.771 118.142C815.771 117.486 815.666 116.874 815.457 116.308C815.249 115.741 814.927 115.283 814.492 114.933C814.058 114.584 813.504 114.409 812.83 114.409C812.157 114.409 811.603 114.584 811.168 114.933C810.734 115.283 810.412 115.741 810.203 116.308C809.994 116.874 809.89 117.486 809.89 118.142C809.89 118.798 809.994 119.408 810.203 119.97C810.412 120.533 810.734 120.987 811.168 121.332C811.603 121.677 812.157 121.849 812.83 121.849ZM821.09 117.094V123H819.582V113.182H821.039V114.716H821.167C821.397 114.217 821.747 113.817 822.215 113.514C822.684 113.207 823.289 113.054 824.031 113.054C824.695 113.054 825.277 113.19 825.776 113.463C826.274 113.732 826.662 114.141 826.939 114.69C827.216 115.236 827.355 115.926 827.355 116.761V123H825.846V116.864C825.846 116.092 825.646 115.491 825.245 115.061C824.845 114.626 824.295 114.409 823.596 114.409C823.115 114.409 822.684 114.513 822.305 114.722C821.93 114.931 821.634 115.236 821.416 115.636C821.199 116.037 821.09 116.523 821.09 117.094ZM838.063 123.23C837.441 123.23 836.876 123.113 836.369 122.879C835.862 122.64 835.459 122.297 835.161 121.849C834.863 121.398 834.713 120.852 834.713 120.213C834.713 119.651 834.824 119.195 835.046 118.845C835.267 118.491 835.564 118.214 835.934 118.014C836.305 117.814 836.714 117.665 837.162 117.567C837.613 117.464 838.067 117.384 838.523 117.324C839.12 117.247 839.603 117.19 839.974 117.151C840.349 117.109 840.622 117.038 840.792 116.94C840.967 116.842 841.054 116.672 841.054 116.429V116.378C841.054 115.747 840.882 115.257 840.537 114.908C840.196 114.558 839.678 114.384 838.983 114.384C838.263 114.384 837.699 114.541 837.289 114.857C836.88 115.172 836.593 115.509 836.426 115.866L834.995 115.355C835.25 114.759 835.591 114.294 836.017 113.962C836.448 113.625 836.917 113.391 837.424 113.259C837.935 113.122 838.438 113.054 838.932 113.054C839.248 113.054 839.61 113.092 840.019 113.169C840.432 113.241 840.831 113.393 841.214 113.623C841.602 113.853 841.924 114.2 842.179 114.665C842.435 115.129 842.563 115.751 842.563 116.531V123H841.054V121.67H840.978C840.875 121.884 840.705 122.112 840.466 122.354C840.228 122.597 839.91 122.804 839.514 122.974C839.118 123.145 838.634 123.23 838.063 123.23ZM838.293 121.875C838.89 121.875 839.392 121.758 839.801 121.523C840.215 121.289 840.526 120.987 840.735 120.616C840.948 120.245 841.054 119.855 841.054 119.446V118.065C840.99 118.142 840.85 118.212 840.632 118.276C840.419 118.336 840.172 118.389 839.891 118.436C839.614 118.479 839.343 118.517 839.079 118.551C838.819 118.581 838.608 118.607 838.446 118.628C838.054 118.679 837.688 118.762 837.347 118.877C837.01 118.988 836.738 119.156 836.529 119.382C836.324 119.604 836.222 119.906 836.222 120.29C836.222 120.814 836.416 121.21 836.804 121.479C837.196 121.743 837.692 121.875 838.293 121.875ZM846.825 117.094V123H845.316V113.182H846.774V114.716H846.901C847.132 114.217 847.481 113.817 847.95 113.514C848.419 113.207 849.024 113.054 849.765 113.054C850.43 113.054 851.012 113.19 851.51 113.463C852.009 113.732 852.396 114.141 852.673 114.69C852.95 115.236 853.089 115.926 853.089 116.761V123H851.58V116.864C851.58 116.092 851.38 115.491 850.98 115.061C850.579 114.626 850.029 114.409 849.33 114.409C848.849 114.409 848.419 114.513 848.039 114.722C847.664 114.931 847.368 115.236 847.151 115.636C846.933 116.037 846.825 116.523 846.825 117.094ZM859.553 123.205C858.735 123.205 858.012 122.998 857.386 122.585C856.76 122.167 856.27 121.579 855.916 120.82C855.562 120.058 855.385 119.156 855.385 118.116C855.385 117.085 855.562 116.19 855.916 115.432C856.27 114.673 856.762 114.087 857.392 113.674C858.023 113.261 858.752 113.054 859.578 113.054C860.218 113.054 860.723 113.161 861.093 113.374C861.468 113.582 861.754 113.821 861.95 114.089C862.15 114.354 862.306 114.571 862.417 114.741H862.544V109.909H864.053V123H862.596V121.491H862.417C862.306 121.67 862.148 121.896 861.944 122.169C861.739 122.437 861.447 122.678 861.068 122.891C860.689 123.1 860.184 123.205 859.553 123.205ZM859.757 121.849C860.363 121.849 860.874 121.692 861.292 121.376C861.709 121.057 862.027 120.616 862.244 120.053C862.461 119.487 862.57 118.832 862.57 118.091C862.57 117.358 862.463 116.717 862.25 116.167C862.037 115.613 861.722 115.183 861.304 114.876C860.887 114.565 860.371 114.409 859.757 114.409C859.118 114.409 858.586 114.573 858.159 114.901C857.738 115.225 857.42 115.666 857.207 116.224C856.998 116.778 856.894 117.401 856.894 118.091C856.894 118.79 857 119.425 857.213 119.996C857.431 120.562 857.75 121.014 858.172 121.351C858.598 121.683 859.127 121.849 859.757 121.849ZM874.977 123.23C874.355 123.23 873.79 123.113 873.283 122.879C872.776 122.64 872.373 122.297 872.075 121.849C871.777 121.398 871.627 120.852 871.627 120.213C871.627 119.651 871.738 119.195 871.96 118.845C872.181 118.491 872.478 118.214 872.848 118.014C873.219 117.814 873.628 117.665 874.076 117.567C874.527 117.464 874.981 117.384 875.437 117.324C876.034 117.247 876.517 117.19 876.888 117.151C877.263 117.109 877.536 117.038 877.706 116.94C877.881 116.842 877.968 116.672 877.968 116.429V116.378C877.968 115.747 877.796 115.257 877.451 114.908C877.11 114.558 876.592 114.384 875.897 114.384C875.177 114.384 874.613 114.541 874.203 114.857C873.794 115.172 873.507 115.509 873.341 115.866L871.909 115.355C872.164 114.759 872.505 114.294 872.931 113.962C873.362 113.625 873.831 113.391 874.338 113.259C874.849 113.122 875.352 113.054 875.846 113.054C876.162 113.054 876.524 113.092 876.933 113.169C877.346 113.241 877.745 113.393 878.128 113.623C878.516 113.853 878.838 114.2 879.093 114.665C879.349 115.129 879.477 115.751 879.477 116.531V123H877.968V121.67H877.892C877.789 121.884 877.619 122.112 877.38 122.354C877.142 122.597 876.824 122.804 876.428 122.974C876.032 123.145 875.548 123.23 874.977 123.23ZM875.207 121.875C875.804 121.875 876.306 121.758 876.716 121.523C877.129 121.289 877.44 120.987 877.649 120.616C877.862 120.245 877.968 119.855 877.968 119.446V118.065C877.904 118.142 877.764 118.212 877.547 118.276C877.333 118.336 877.086 118.389 876.805 118.436C876.528 118.479 876.257 118.517 875.993 118.551C875.733 118.581 875.522 118.607 875.36 118.628C874.968 118.679 874.602 118.762 874.261 118.877C873.924 118.988 873.652 119.156 873.443 119.382C873.238 119.604 873.136 119.906 873.136 120.29C873.136 120.814 873.33 121.21 873.718 121.479C874.11 121.743 874.606 121.875 875.207 121.875ZM882.23 126.682V113.182H883.688V114.741H883.867C883.977 114.571 884.131 114.354 884.327 114.089C884.527 113.821 884.813 113.582 885.183 113.374C885.558 113.161 886.066 113.054 886.705 113.054C887.531 113.054 888.26 113.261 888.891 113.674C889.521 114.087 890.014 114.673 890.367 115.432C890.721 116.19 890.898 117.085 890.898 118.116C890.898 119.156 890.721 120.058 890.367 120.82C890.014 121.579 889.524 122.167 888.897 122.585C888.271 122.998 887.548 123.205 886.73 123.205C886.1 123.205 885.595 123.1 885.215 122.891C884.836 122.678 884.544 122.437 884.34 122.169C884.135 121.896 883.977 121.67 883.867 121.491H883.739V126.682H882.23ZM883.713 118.091C883.713 118.832 883.822 119.487 884.039 120.053C884.257 120.616 884.574 121.057 884.992 121.376C885.409 121.692 885.921 121.849 886.526 121.849C887.156 121.849 887.683 121.683 888.105 121.351C888.531 121.014 888.85 120.562 889.063 119.996C889.281 119.425 889.389 118.79 889.389 118.091C889.389 117.401 889.283 116.778 889.07 116.224C888.861 115.666 888.544 115.225 888.117 114.901C887.695 114.573 887.165 114.409 886.526 114.409C885.912 114.409 885.396 114.565 884.979 114.876C884.561 115.183 884.246 115.613 884.033 116.167C883.82 116.717 883.713 117.358 883.713 118.091ZM893.199 126.682V113.182H894.656V114.741H894.835C894.946 114.571 895.1 114.354 895.296 114.089C895.496 113.821 895.781 113.582 896.152 113.374C896.527 113.161 897.034 113.054 897.673 113.054C898.5 113.054 899.229 113.261 899.86 113.674C900.49 114.087 900.982 114.673 901.336 115.432C901.69 116.19 901.867 117.085 901.867 118.116C901.867 119.156 901.69 120.058 901.336 120.82C900.982 121.579 900.492 122.167 899.866 122.585C899.24 122.998 898.517 123.205 897.699 123.205C897.068 123.205 896.563 123.1 896.184 122.891C895.805 122.678 895.513 122.437 895.308 122.169C895.104 121.896 894.946 121.67 894.835 121.491H894.708V126.682H893.199ZM894.682 118.091C894.682 118.832 894.791 119.487 895.008 120.053C895.225 120.616 895.543 121.057 895.96 121.376C896.378 121.692 896.889 121.849 897.494 121.849C898.125 121.849 898.651 121.683 899.073 121.351C899.499 121.014 899.819 120.562 900.032 119.996C900.249 119.425 900.358 118.79 900.358 118.091C900.358 117.401 900.252 116.778 900.039 116.224C899.83 115.666 899.512 115.225 899.086 114.901C898.664 114.573 898.134 114.409 897.494 114.409C896.881 114.409 896.365 114.565 895.948 114.876C895.53 115.183 895.215 115.613 895.002 116.167C894.789 116.717 894.682 117.358 894.682 118.091ZM905.676 109.909V123H904.168V109.909H905.676ZM908.439 123V113.182H909.948V123H908.439ZM909.206 111.545C908.912 111.545 908.659 111.445 908.446 111.245C908.237 111.045 908.132 110.804 908.132 110.523C908.132 110.241 908.237 110.001 908.446 109.8C908.659 109.6 908.912 109.5 909.206 109.5C909.5 109.5 909.752 109.6 909.961 109.8C910.174 110.001 910.28 110.241 910.28 110.523C910.28 110.804 910.174 111.045 909.961 111.245C909.752 111.445 909.5 111.545 909.206 111.545ZM916.699 123.205C915.779 123.205 914.986 122.987 914.322 122.553C913.657 122.118 913.145 121.519 912.787 120.756C912.43 119.994 912.251 119.122 912.251 118.142C912.251 117.145 912.434 116.265 912.8 115.502C913.171 114.735 913.687 114.136 914.347 113.706C915.012 113.271 915.787 113.054 916.674 113.054C917.364 113.054 917.986 113.182 918.54 113.438C919.094 113.693 919.548 114.051 919.902 114.511C920.256 114.972 920.475 115.509 920.56 116.122H919.052C918.937 115.675 918.681 115.278 918.285 114.933C917.893 114.584 917.364 114.409 916.699 114.409C916.111 114.409 915.596 114.562 915.153 114.869C914.714 115.172 914.371 115.6 914.123 116.154C913.881 116.704 913.759 117.349 913.759 118.091C913.759 118.849 913.878 119.51 914.117 120.072C914.36 120.635 914.701 121.072 915.14 121.383C915.583 121.694 916.103 121.849 916.699 121.849C917.091 121.849 917.447 121.781 917.767 121.645C918.086 121.509 918.357 121.312 918.579 121.057C918.8 120.801 918.958 120.494 919.052 120.136H920.56C920.475 120.716 920.264 121.238 919.927 121.702C919.595 122.163 919.154 122.529 918.604 122.802C918.059 123.07 917.424 123.205 916.699 123.205ZM925.655 123.23C925.032 123.23 924.468 123.113 923.961 122.879C923.454 122.64 923.051 122.297 922.753 121.849C922.454 121.398 922.305 120.852 922.305 120.213C922.305 119.651 922.416 119.195 922.638 118.845C922.859 118.491 923.155 118.214 923.526 118.014C923.897 117.814 924.306 117.665 924.753 117.567C925.205 117.464 925.659 117.384 926.115 117.324C926.711 117.247 927.195 117.19 927.566 117.151C927.941 117.109 928.214 117.038 928.384 116.94C928.559 116.842 928.646 116.672 928.646 116.429V116.378C928.646 115.747 928.474 115.257 928.128 114.908C927.787 114.558 927.27 114.384 926.575 114.384C925.855 114.384 925.29 114.541 924.881 114.857C924.472 115.172 924.184 115.509 924.018 115.866L922.586 115.355C922.842 114.759 923.183 114.294 923.609 113.962C924.04 113.625 924.508 113.391 925.015 113.259C925.527 113.122 926.03 113.054 926.524 113.054C926.839 113.054 927.202 113.092 927.611 113.169C928.024 113.241 928.422 113.393 928.806 113.623C929.194 113.853 929.515 114.2 929.771 114.665C930.027 115.129 930.155 115.751 930.155 116.531V123H928.646V121.67H928.569C928.467 121.884 928.297 122.112 928.058 122.354C927.819 122.597 927.502 122.804 927.106 122.974C926.709 123.145 926.226 123.23 925.655 123.23ZM925.885 121.875C926.481 121.875 926.984 121.758 927.393 121.523C927.807 121.289 928.118 120.987 928.327 120.616C928.54 120.245 928.646 119.855 928.646 119.446V118.065C928.582 118.142 928.442 118.212 928.224 118.276C928.011 118.336 927.764 118.389 927.483 118.436C927.206 118.479 926.935 118.517 926.671 118.551C926.411 118.581 926.2 118.607 926.038 118.628C925.646 118.679 925.28 118.762 924.939 118.877C924.602 118.988 924.329 119.156 924.121 119.382C923.916 119.604 923.814 119.906 923.814 120.29C923.814 120.814 924.008 121.21 924.395 121.479C924.787 121.743 925.284 121.875 925.885 121.875ZM937.178 113.182V114.46H932.09V113.182H937.178ZM933.573 110.83H935.081V120.188C935.081 120.614 935.143 120.933 935.267 121.146C935.395 121.355 935.556 121.496 935.752 121.568C935.953 121.636 936.164 121.67 936.385 121.67C936.551 121.67 936.688 121.662 936.794 121.645C936.901 121.624 936.986 121.607 937.05 121.594L937.357 122.949C937.255 122.987 937.112 123.026 936.929 123.064C936.745 123.107 936.513 123.128 936.232 123.128C935.806 123.128 935.388 123.036 934.979 122.853C934.574 122.67 934.238 122.391 933.969 122.016C933.705 121.641 933.573 121.168 933.573 120.597V110.83ZM939.447 123V113.182H940.956V123H939.447ZM940.214 111.545C939.92 111.545 939.667 111.445 939.453 111.245C939.245 111.045 939.14 110.804 939.14 110.523C939.14 110.241 939.245 110.001 939.453 109.8C939.667 109.6 939.92 109.5 940.214 109.5C940.508 109.5 940.76 109.6 940.968 109.8C941.181 110.001 941.288 110.241 941.288 110.523C941.288 110.804 941.181 111.045 940.968 111.245C940.76 111.445 940.508 111.545 940.214 111.545ZM947.707 123.205C946.821 123.205 946.043 122.994 945.374 122.572C944.709 122.15 944.189 121.56 943.814 120.801C943.444 120.043 943.258 119.156 943.258 118.142C943.258 117.119 943.444 116.227 943.814 115.464C944.189 114.701 944.709 114.109 945.374 113.687C946.043 113.265 946.821 113.054 947.707 113.054C948.594 113.054 949.369 113.265 950.034 113.687C950.703 114.109 951.223 114.701 951.594 115.464C951.969 116.227 952.156 117.119 952.156 118.142C952.156 119.156 951.969 120.043 951.594 120.801C951.223 121.56 950.703 122.15 950.034 122.572C949.369 122.994 948.594 123.205 947.707 123.205ZM947.707 121.849C948.381 121.849 948.934 121.677 949.369 121.332C949.804 120.987 950.126 120.533 950.334 119.97C950.543 119.408 950.648 118.798 950.648 118.142C950.648 117.486 950.543 116.874 950.334 116.308C950.126 115.741 949.804 115.283 949.369 114.933C948.934 114.584 948.381 114.409 947.707 114.409C947.034 114.409 946.48 114.584 946.045 114.933C945.611 115.283 945.289 115.741 945.08 116.308C944.871 116.874 944.767 117.486 944.767 118.142C944.767 118.798 944.871 119.408 945.08 119.97C945.289 120.533 945.611 120.987 946.045 121.332C946.48 121.677 947.034 121.849 947.707 121.849ZM955.967 117.094V123H954.459V113.182H955.916V114.716H956.044C956.274 114.217 956.624 113.817 957.092 113.514C957.561 113.207 958.166 113.054 958.908 113.054C959.572 113.054 960.154 113.19 960.653 113.463C961.151 113.732 961.539 114.141 961.816 114.69C962.093 115.236 962.232 115.926 962.232 116.761V123H960.723V116.864C960.723 116.092 960.523 115.491 960.122 115.061C959.722 114.626 959.172 114.409 958.473 114.409C957.991 114.409 957.561 114.513 957.182 114.722C956.807 114.931 956.511 115.236 956.293 115.636C956.076 116.037 955.967 116.523 955.967 117.094Z" fill="#212721"/>
<path d="M537.259 19V17.5682L541.689 12.9787C542.162 12.4801 542.552 12.0433 542.859 11.6683C543.17 11.2891 543.402 10.929 543.555 10.5881C543.709 10.2472 543.786 9.88494 543.786 9.50142C543.786 9.06676 543.683 8.69176 543.479 8.37642C543.274 8.05682 542.995 7.81179 542.641 7.64134C542.288 7.46662 541.889 7.37926 541.446 7.37926C540.977 7.37926 540.568 7.47514 540.219 7.6669C539.869 7.85866 539.601 8.12926 539.413 8.47869C539.226 8.82812 539.132 9.23722 539.132 9.70597H537.246C537.246 8.90909 537.43 8.21236 537.796 7.61577C538.163 7.01918 538.665 6.55682 539.305 6.22869C539.944 5.89631 540.67 5.73011 541.484 5.73011C542.307 5.73011 543.031 5.89418 543.658 6.2223C544.288 6.54616 544.781 6.98935 545.134 7.55185C545.488 8.11009 545.665 8.74077 545.665 9.44389C545.665 9.92969 545.573 10.4048 545.39 10.8693C545.211 11.3338 544.898 11.8516 544.45 12.4226C544.003 12.9893 543.381 13.6776 542.584 14.4872L539.982 17.2102V17.3061H545.876V19H537.259ZM554.109 11.6236V13.2855H548.305V11.6236H554.109ZM563.949 9.34801C563.881 8.7429 563.6 8.27415 563.105 7.94176C562.611 7.60511 561.989 7.43679 561.239 7.43679C560.702 7.43679 560.238 7.52202 559.846 7.69247C559.453 7.85866 559.149 8.08878 558.931 8.38281C558.718 8.67258 558.612 9.00284 558.612 9.37358C558.612 9.68466 558.684 9.95312 558.829 10.179C558.978 10.4048 559.172 10.5945 559.411 10.7479C559.654 10.897 559.914 11.0227 560.191 11.125C560.468 11.223 560.734 11.304 560.99 11.3679L562.268 11.7003C562.686 11.8026 563.114 11.9411 563.553 12.1158C563.992 12.2905 564.399 12.5206 564.774 12.8061C565.149 13.0916 565.451 13.4453 565.681 13.8672C565.916 14.2891 566.033 14.794 566.033 15.3821C566.033 16.1236 565.841 16.782 565.458 17.3572C565.078 17.9325 564.527 18.3864 563.802 18.7188C563.082 19.0511 562.211 19.2173 561.188 19.2173C560.208 19.2173 559.36 19.0618 558.644 18.7507C557.928 18.4396 557.368 17.9986 556.963 17.4276C556.558 16.8523 556.334 16.1705 556.292 15.3821H558.273C558.311 15.8551 558.465 16.2493 558.733 16.5646C559.006 16.8757 559.353 17.108 559.775 17.2614C560.201 17.4105 560.668 17.4851 561.175 17.4851C561.733 17.4851 562.23 17.3977 562.664 17.223C563.103 17.044 563.449 16.7969 563.7 16.4815C563.951 16.1619 564.077 15.7891 564.077 15.3629C564.077 14.9751 563.966 14.6577 563.745 14.4105C563.527 14.1634 563.231 13.9588 562.856 13.7969C562.485 13.6349 562.066 13.4922 561.597 13.3686L560.05 12.9467C559.002 12.6612 558.171 12.2415 557.557 11.6875C556.948 11.1335 556.643 10.4006 556.643 9.48864C556.643 8.73437 556.848 8.07599 557.257 7.51349C557.666 6.95099 558.22 6.5142 558.919 6.20312C559.618 5.88778 560.406 5.73011 561.284 5.73011C562.17 5.73011 562.952 5.88565 563.63 6.19673C564.311 6.50781 564.848 6.93608 565.24 7.48153C565.632 8.02273 565.837 8.64489 565.854 9.34801H563.949ZM572.823 9.18182V10.7159H567.46V9.18182H572.823ZM568.898 6.82955H570.809V16.1172C570.809 16.4879 570.865 16.767 570.976 16.9545C571.086 17.1378 571.229 17.2635 571.404 17.3317C571.583 17.3956 571.777 17.4276 571.986 17.4276C572.139 17.4276 572.273 17.4169 572.388 17.3956C572.503 17.3743 572.593 17.3572 572.657 17.3445L573.002 18.9233C572.891 18.9659 572.733 19.0085 572.529 19.0511C572.324 19.098 572.069 19.1236 571.762 19.1278C571.259 19.1364 570.79 19.0469 570.356 18.8594C569.921 18.6719 569.569 18.3821 569.301 17.9901C569.032 17.598 568.898 17.1058 568.898 16.5135V6.82955ZM579.063 19.1982C578.096 19.1982 577.263 18.9915 576.564 18.5781C575.869 18.1605 575.332 17.5746 574.953 16.8203C574.578 16.0618 574.391 15.1733 574.391 14.1548C574.391 13.1491 574.578 12.2628 574.953 11.4957C575.332 10.7287 575.861 10.13 576.538 9.69957C577.22 9.26918 578.017 9.05398 578.929 9.05398C579.483 9.05398 580.02 9.1456 580.54 9.32884C581.06 9.51207 581.526 9.79972 581.94 10.1918C582.353 10.5838 582.679 11.093 582.918 11.7195C583.156 12.3416 583.276 13.098 583.276 13.9886V14.6662H575.471V13.2344H581.403C581.403 12.7315 581.3 12.2862 581.096 11.8984C580.891 11.5064 580.604 11.1974 580.233 10.9716C579.866 10.7457 579.436 10.6328 578.942 10.6328C578.405 10.6328 577.936 10.7649 577.536 11.0291C577.139 11.2891 576.832 11.63 576.615 12.0518C576.402 12.4695 576.295 12.9233 576.295 13.4134V14.532C576.295 15.1882 576.411 15.7464 576.641 16.2067C576.875 16.6669 577.201 17.0185 577.619 17.2614C578.036 17.5 578.524 17.6193 579.082 17.6193C579.445 17.6193 579.775 17.5682 580.073 17.4659C580.371 17.3594 580.629 17.2017 580.847 16.9929C581.064 16.7841 581.23 16.5263 581.345 16.2195L583.154 16.5455C583.009 17.0781 582.749 17.5447 582.374 17.9453C582.004 18.3416 581.537 18.6506 580.974 18.8722C580.416 19.0895 579.779 19.1982 579.063 19.1982ZM585.396 22.6818V9.18182H587.263V10.7734H587.422C587.533 10.5689 587.693 10.3324 587.902 10.0639C588.111 9.79545 588.4 9.56108 588.771 9.3608C589.142 9.15625 589.632 9.05398 590.241 9.05398C591.034 9.05398 591.741 9.25426 592.363 9.65483C592.986 10.0554 593.474 10.6328 593.827 11.3871C594.185 12.1413 594.364 13.049 594.364 14.1101C594.364 15.1712 594.187 16.081 593.834 16.8395C593.48 17.5937 592.994 18.1754 592.376 18.5845C591.758 18.9893 591.053 19.1918 590.26 19.1918C589.664 19.1918 589.176 19.0916 588.797 18.8913C588.422 18.6911 588.128 18.4567 587.915 18.1882C587.702 17.9197 587.537 17.6811 587.422 17.4723H587.307V22.6818H585.396ZM587.269 14.0909C587.269 14.7812 587.369 15.3864 587.569 15.9062C587.77 16.4261 588.059 16.8331 588.439 17.1271C588.818 17.4169 589.282 17.5618 589.832 17.5618C590.403 17.5618 590.881 17.4105 591.264 17.108C591.648 16.8011 591.937 16.3857 592.133 15.8615C592.334 15.3374 592.434 14.7472 592.434 14.0909C592.434 13.4432 592.336 12.8615 592.14 12.3459C591.948 11.8303 591.658 11.4233 591.27 11.125C590.887 10.8267 590.407 10.6776 589.832 10.6776C589.278 10.6776 588.809 10.8203 588.426 11.1058C588.047 11.3913 587.759 11.7898 587.563 12.3011C587.367 12.8125 587.269 13.4091 587.269 14.0909Z" fill="#212721"/>
<path d="M824.817 19.179C823.939 19.179 823.155 19.0277 822.464 18.7251C821.778 18.4226 821.235 18.0028 820.835 17.4659C820.438 16.9247 820.225 16.2983 820.195 15.5866H822.202C822.228 15.9744 822.358 16.3111 822.592 16.5966C822.831 16.8778 823.142 17.0952 823.526 17.2486C823.909 17.402 824.335 17.4787 824.804 17.4787C825.32 17.4787 825.776 17.3892 826.172 17.2102C826.572 17.0312 826.886 16.782 827.112 16.4624C827.337 16.1385 827.45 15.7656 827.45 15.3438C827.45 14.9048 827.337 14.5192 827.112 14.1868C826.89 13.8501 826.564 13.5859 826.134 13.3942C825.707 13.2024 825.192 13.1065 824.587 13.1065H823.481V11.4957H824.587C825.072 11.4957 825.499 11.4084 825.865 11.2337C826.236 11.0589 826.526 10.8161 826.734 10.505C826.943 10.1896 827.048 9.82102 827.048 9.39915C827.048 8.99432 826.956 8.64276 826.773 8.34446C826.594 8.0419 826.338 7.8054 826.006 7.63494C825.678 7.46449 825.29 7.37926 824.842 7.37926C824.416 7.37926 824.018 7.4581 823.647 7.61577C823.281 7.76918 822.982 7.99077 822.752 8.28054C822.522 8.56605 822.398 8.90909 822.381 9.30966H820.47C820.491 8.60227 820.7 7.98011 821.097 7.44318C821.497 6.90625 822.026 6.48651 822.682 6.18395C823.338 5.88139 824.067 5.73011 824.868 5.73011C825.707 5.73011 826.432 5.89418 827.041 6.2223C827.655 6.54616 828.128 6.97869 828.46 7.51989C828.797 8.06108 828.963 8.65341 828.959 9.29688C828.963 10.0298 828.759 10.652 828.345 11.1634C827.936 11.6747 827.391 12.0178 826.709 12.1925V12.2947C827.578 12.4268 828.251 12.772 828.729 13.3303C829.21 13.8885 829.449 14.581 829.445 15.4077C829.449 16.1278 829.249 16.7734 828.844 17.3445C828.443 17.9155 827.896 18.3651 827.201 18.6932C826.506 19.017 825.712 19.179 824.817 19.179ZM837.671 11.6236V13.2855H831.867V11.6236H837.671ZM847.512 9.34801C847.444 8.7429 847.162 8.27415 846.668 7.94176C846.174 7.60511 845.551 7.43679 844.801 7.43679C844.265 7.43679 843.8 7.52202 843.408 7.69247C843.016 7.85866 842.711 8.08878 842.494 8.38281C842.281 8.67258 842.174 9.00284 842.174 9.37358C842.174 9.68466 842.247 9.95312 842.392 10.179C842.541 10.4048 842.735 10.5945 842.973 10.7479C843.216 10.897 843.476 11.0227 843.753 11.125C844.03 11.223 844.297 11.304 844.552 11.3679L845.831 11.7003C846.248 11.8026 846.676 11.9411 847.115 12.1158C847.554 12.2905 847.961 12.5206 848.336 12.8061C848.711 13.0916 849.014 13.4453 849.244 13.8672C849.478 14.2891 849.596 14.794 849.596 15.3821C849.596 16.1236 849.404 16.782 849.02 17.3572C848.641 17.9325 848.089 18.3864 847.365 18.7188C846.645 19.0511 845.773 19.2173 844.75 19.2173C843.77 19.2173 842.922 19.0618 842.206 18.7507C841.49 18.4396 840.93 17.9986 840.525 17.4276C840.12 16.8523 839.897 16.1705 839.854 15.3821H841.836C841.874 15.8551 842.027 16.2493 842.296 16.5646C842.569 16.8757 842.916 17.108 843.338 17.2614C843.764 17.4105 844.23 17.4851 844.738 17.4851C845.296 17.4851 845.792 17.3977 846.227 17.223C846.666 17.044 847.011 16.7969 847.262 16.4815C847.514 16.1619 847.64 15.7891 847.64 15.3629C847.64 14.9751 847.529 14.6577 847.307 14.4105C847.09 14.1634 846.794 13.9588 846.419 13.7969C846.048 13.6349 845.628 13.4922 845.159 13.3686L843.613 12.9467C842.564 12.6612 841.733 12.2415 841.12 11.6875C840.51 11.1335 840.206 10.4006 840.206 9.48864C840.206 8.73437 840.41 8.07599 840.819 7.51349C841.228 6.95099 841.782 6.5142 842.481 6.20312C843.18 5.88778 843.968 5.73011 844.846 5.73011C845.733 5.73011 846.515 5.88565 847.192 6.19673C847.874 6.50781 848.411 6.93608 848.803 7.48153C849.195 8.02273 849.4 8.64489 849.417 9.34801H847.512ZM856.385 9.18182V10.7159H851.023V9.18182H856.385ZM852.461 6.82955H854.372V16.1172C854.372 16.4879 854.427 16.767 854.538 16.9545C854.649 17.1378 854.792 17.2635 854.966 17.3317C855.145 17.3956 855.339 17.4276 855.548 17.4276C855.702 17.4276 855.836 17.4169 855.951 17.3956C856.066 17.3743 856.155 17.3572 856.219 17.3445L856.564 18.9233C856.454 18.9659 856.296 19.0085 856.091 19.0511C855.887 19.098 855.631 19.1236 855.324 19.1278C854.822 19.1364 854.353 19.0469 853.918 18.8594C853.483 18.6719 853.132 18.3821 852.863 17.9901C852.595 17.598 852.461 17.1058 852.461 16.5135V6.82955ZM862.626 19.1982C861.658 19.1982 860.825 18.9915 860.126 18.5781C859.432 18.1605 858.895 17.5746 858.516 16.8203C858.141 16.0618 857.953 15.1733 857.953 14.1548C857.953 13.1491 858.141 12.2628 858.516 11.4957C858.895 10.7287 859.423 10.13 860.101 9.69957C860.783 9.26918 861.58 9.05398 862.491 9.05398C863.045 9.05398 863.582 9.1456 864.102 9.32884C864.622 9.51207 865.089 9.79972 865.502 10.1918C865.915 10.5838 866.241 11.093 866.48 11.7195C866.719 12.3416 866.838 13.098 866.838 13.9886V14.6662H859.033V13.2344H864.965C864.965 12.7315 864.863 12.2862 864.658 11.8984C864.454 11.5064 864.166 11.1974 863.795 10.9716C863.429 10.7457 862.999 10.6328 862.504 10.6328C861.967 10.6328 861.499 10.7649 861.098 11.0291C860.702 11.2891 860.395 11.63 860.178 12.0518C859.964 12.4695 859.858 12.9233 859.858 13.4134V14.532C859.858 15.1882 859.973 15.7464 860.203 16.2067C860.438 16.6669 860.763 17.0185 861.181 17.2614C861.599 17.5 862.087 17.6193 862.645 17.6193C863.007 17.6193 863.337 17.5682 863.636 17.4659C863.934 17.3594 864.192 17.2017 864.409 16.9929C864.626 16.7841 864.793 16.5263 864.908 16.2195L866.717 16.5455C866.572 17.0781 866.312 17.5447 865.937 17.9453C865.566 18.3416 865.099 18.6506 864.537 18.8722C863.979 19.0895 863.342 19.1982 862.626 19.1982ZM868.959 22.6818V9.18182H870.825V10.7734H870.985C871.096 10.5689 871.256 10.3324 871.464 10.0639C871.673 9.79545 871.963 9.56108 872.334 9.3608C872.704 9.15625 873.194 9.05398 873.804 9.05398C874.596 9.05398 875.304 9.25426 875.926 9.65483C876.548 10.0554 877.036 10.6328 877.39 11.3871C877.748 12.1413 877.927 13.049 877.927 14.1101C877.927 15.1712 877.75 16.081 877.396 16.8395C877.042 17.5937 876.557 18.1754 875.939 18.5845C875.321 18.9893 874.616 19.1918 873.823 19.1918C873.226 19.1918 872.738 19.0916 872.359 18.8913C871.984 18.6911 871.69 18.4567 871.477 18.1882C871.264 17.9197 871.1 17.6811 870.985 17.4723H870.87V22.6818H868.959ZM870.831 14.0909C870.831 14.7812 870.932 15.3864 871.132 15.9062C871.332 16.4261 871.622 16.8331 872.001 17.1271C872.381 17.4169 872.845 17.5618 873.395 17.5618C873.966 17.5618 874.443 17.4105 874.827 17.108C875.21 16.8011 875.5 16.3857 875.696 15.8615C875.896 15.3374 875.996 14.7472 875.996 14.0909C875.996 13.4432 875.898 12.8615 875.702 12.3459C875.51 11.8303 875.221 11.4233 874.833 11.125C874.449 10.8267 873.97 10.6776 873.395 10.6776C872.841 10.6776 872.372 10.8203 871.988 11.1058C871.609 11.3913 871.322 11.7898 871.126 12.3011C870.93 12.8125 870.831 13.4091 870.831 14.0909Z" fill="#212721"/>
<circle cx="16" cy="64" r="16" fill="#2D6CB1"/>
<circle cx="295" cy="64" r="28" fill="#2D6CB1"/>
<path d="M296.982 55.6757C296.592 55.2852 295.959 55.2852 295.568 55.6757C295.178 56.0662 295.178 56.6994 295.568 57.0899L296.982 55.6757ZM303.893 64.0001L304.6 64.7073C304.787 64.5197 304.893 64.2654 304.893 64.0001C304.893 63.7349 304.787 63.4806 304.6 63.293L303.893 64.0001ZM295.568 70.9104C295.178 71.3009 295.178 71.9341 295.568 72.3246C295.959 72.7151 296.592 72.7151 296.982 72.3246L295.568 70.9104ZM286.141 63.0001C285.588 63.0001 285.141 63.4479 285.141 64.0001C285.141 64.5524 285.588 65.0001 286.141 65.0001V63.0001ZM303.87 65.0001C304.422 65.0001 304.87 64.5524 304.87 64.0001C304.87 63.4479 304.422 63.0001 303.87 63.0001V65.0001ZM295.568 57.0899L303.186 64.7073L304.6 63.293L296.982 55.6757L295.568 57.0899ZM303.186 63.293L295.568 70.9104L296.982 72.3246L304.6 64.7073L303.186 63.293ZM286.141 65.0001H303.87V63.0001H286.141V65.0001Z" fill="white"/>
<circle cx="566" cy="64" r="28" fill="#2D6CB1"/>
<circle cx="849" cy="64" r="16" fill="#F2F2F2"/>
<path d="M567.982 55.6757C567.592 55.2852 566.959 55.2852 566.568 55.6757C566.178 56.0662 566.178 56.6994 566.568 57.0899L567.982 55.6757ZM574.893 64.0001L575.6 64.7073C575.787 64.5197 575.893 64.2654 575.893 64.0001C575.893 63.7349 575.787 63.4806 575.6 63.293L574.893 64.0001ZM566.568 70.9104C566.178 71.3009 566.178 71.9341 566.568 72.3246C566.959 72.7151 567.592 72.7151 567.982 72.3246L566.568 70.9104ZM557.141 63.0001C556.588 63.0001 556.141 63.4479 556.141 64.0001C556.141 64.5524 556.588 65.0001 557.141 65.0001V63.0001ZM574.87 65.0001C575.422 65.0001 575.87 64.5524 575.87 64.0001C575.87 63.4479 575.422 63.0001 574.87 63.0001V65.0001ZM566.568 57.0899L574.186 64.7073L575.6 63.293L567.982 55.6757L566.568 57.0899ZM574.186 63.293L566.568 70.9104L567.982 72.3246L575.6 64.7073L574.186 63.293ZM557.141 65.0001H574.87V63.0001H557.141V65.0001Z" fill="white"/>
</svg>
